<?xml version="1.0" standalone="no"?>
<!DOCTYPE svg PUBLIC "-//W3C//DTD SVG 20010904//EN"
 "http://www.w3.org/TR/2001/REC-SVG-20010904/DTD/svg10.dtd">
<svg version="1.0" xmlns="http://www.w3.org/2000/svg"
 width="1785.000000pt" height="1785.000000pt" viewBox="0 0 1785.000000 1785.000000"
 preserveAspectRatio="xMidYMid meet">
<metadata>
Created by potrace 1.14, written by Peter Selinger 2001-2017
</metadata>
<g transform="translate(0.000000,1785.000000) scale(0.100000,-0.100000)"
fill="#000000" stroke="none">
<path d="M0 8925 l0 -4355 8925 0 8925 0 0 4355 0 4355 -8925 0 -8925 0 0
-4355z m9866 3071 c67 -3 105 -1 112 6 8 8 15 8 24 1 7 -5 38 -11 68 -12 30
-2 60 -6 65 -10 17 -13 67 -24 130 -27 33 -2 92 -10 130 -18 39 -9 81 -16 95
-16 15 0 30 -4 35 -9 6 -5 28 -11 50 -14 22 -3 65 -12 95 -21 178 -50 341 -89
389 -92 30 -2 61 -10 70 -17 25 -21 89 -45 175 -67 44 -11 109 -32 144 -46 36
-14 82 -27 103 -29 20 -1 47 -10 60 -19 13 -9 28 -16 34 -16 6 0 105 -39 220
-86 116 -48 232 -95 258 -105 55 -22 384 -184 401 -198 12 -9 123 -54 166 -66
14 -4 27 -11 30 -15 3 -4 42 -26 87 -49 46 -24 85 -46 88 -50 2 -5 35 -23 72
-41 128 -61 208 -101 233 -114 14 -8 41 -21 61 -30 20 -8 55 -36 77 -60 26
-28 56 -49 79 -56 21 -5 49 -19 63 -30 53 -43 107 -75 155 -92 28 -9 41 -17
31 -18 -19 0 -18 -1 2 -23 12 -13 27 -37 33 -55 8 -24 19 -34 46 -41 77 -21
211 -128 228 -180 3 -12 14 -21 23 -21 23 -1 78 -43 203 -158 114 -105 149
-147 149 -179 0 -11 12 -28 26 -38 46 -30 83 -79 90 -120 4 -27 19 -52 45 -79
22 -21 39 -44 39 -52 0 -7 20 -32 44 -54 24 -23 50 -56 57 -73 7 -18 32 -52
56 -77 49 -51 113 -145 113 -165 0 -8 14 -22 30 -32 35 -20 39 -39 10 -48 -28
-9 -25 -20 10 -45 19 -14 33 -35 40 -63 25 -96 62 -176 107 -228 25 -30 48
-56 52 -59 22 -18 71 -117 71 -144 0 -14 5 -37 10 -52 9 -22 15 -26 39 -21 25
5 28 3 28 -21 0 -37 31 -141 52 -178 10 -17 26 -55 36 -85 10 -30 35 -75 56
-100 22 -26 39 -54 39 -62 0 -9 14 -28 31 -44 101 -93 109 -108 109 -213 0
-47 5 -64 24 -87 42 -51 86 -157 86 -210 0 -12 4 -23 10 -25 12 -4 110 -167
110 -184 0 -7 12 -20 28 -29 46 -28 123 -144 159 -239 19 -51 50 -108 72 -135
69 -85 102 -157 188 -421 32 -96 68 -192 98 -255 44 -93 57 -130 65 -185 4
-30 16 -89 26 -130 19 -82 20 -92 10 -285 -8 -151 -11 -165 -37 -165 -11 0
-22 -7 -25 -15 -5 -12 -10 -13 -20 -4 -10 8 -14 8 -14 0 0 -6 -9 -11 -20 -11
-20 0 -26 -21 -22 -72 1 -10 -3 -18 -8 -18 -6 0 -10 -5 -10 -11 0 -6 -7 -17
-15 -25 -11 -11 -15 -12 -15 -3 0 9 -4 8 -12 -3 -21 -25 -43 -28 -56 -7 -12
18 -13 18 -32 -1 -11 -11 -20 -26 -20 -34 0 -8 -4 -18 -10 -21 -5 -3 -10 -1
-10 5 0 7 -7 5 -16 -5 -13 -13 -19 -13 -31 -3 -12 10 -17 9 -24 -5 -6 -9 -15
-17 -20 -17 -6 0 -17 -6 -24 -14 -23 -23 -87 -30 -101 -12 -15 21 -22 20 -26
-1 -4 -19 -16 -22 -153 -26 -63 -1 -88 -7 -116 -25 -42 -26 -94 -29 -107 -6
-8 14 -14 13 -58 -4 -31 -11 -68 -17 -99 -16 -27 2 -54 -1 -61 -7 -8 -7 -11
-5 -10 7 0 11 -10 20 -29 25 -43 12 -104 17 -102 8 1 -4 -2 -7 -8 -7 -5 0 -9
4 -7 9 1 6 -4 6 -15 0 -29 -15 -272 -25 -318 -12 -59 16 -109 71 -108 118 1
30 9 44 46 78 35 32 50 39 62 32 9 -5 24 -6 33 -2 18 7 265 7 317 -1 41 -5
275 27 275 39 0 5 21 6 48 2 46 -6 193 20 247 45 11 5 38 14 60 21 22 6 45 15
50 19 6 3 28 12 50 18 37 11 54 24 144 116 32 33 71 114 48 99 -6 -4 -8 2 -5
15 11 42 -20 32 -56 -18 l-18 -25 6 30 c4 17 7 37 8 45 1 8 7 21 15 28 7 8 11
18 8 23 -8 13 -43 -11 -50 -36 -4 -12 -8 -15 -11 -8 -3 7 -1 20 5 31 6 10 13
43 16 73 4 30 10 58 15 63 15 15 -18 55 -41 49 -14 -4 -20 -1 -17 8 2 8 -8 28
-21 44 -13 17 -21 22 -18 13 3 -10 2 -20 -3 -23 -12 -7 -13 37 -2 51 4 5 5 8
3 7 -8 -5 -32 37 -26 46 3 5 1 12 -4 16 -6 3 -8 12 -5 20 3 8 -3 27 -15 43
-11 16 -20 42 -20 58 1 36 -17 108 -28 111 -23 9 -37 25 -26 29 14 6 6 34 -15
51 -12 10 -13 15 -2 28 9 11 9 15 1 15 -7 0 -10 4 -6 9 3 5 -4 12 -15 16 -19
6 -24 16 -21 43 1 6 -5 12 -14 12 -8 0 -14 3 -13 8 1 4 -4 19 -10 33 -6 15
-10 40 -10 56 1 16 -5 39 -12 52 -10 19 -10 28 0 47 11 19 11 26 1 38 -7 9
-13 32 -13 51 0 20 -5 38 -12 41 -7 3 -25 30 -41 60 -27 51 -28 57 -12 65 24
14 21 25 -10 38 -16 6 -43 20 -62 30 l-34 20 26 6 c15 4 31 13 37 19 14 18
-17 52 -56 60 -18 4 -45 22 -62 40 -38 43 -97 56 -122 29 -36 -37 -33 -56 13
-84 23 -15 63 -34 90 -44 26 -10 46 -20 44 -22 -6 -6 -88 26 -135 52 -25 14
-50 25 -56 25 -6 0 -37 -40 -70 -89 -56 -86 -99 -127 -173 -165 -18 -9 -39
-16 -47 -16 -8 0 -30 -14 -48 -31 -47 -45 -216 -182 -242 -196 -28 -17 -66
-16 -66 1 0 7 -13 19 -30 26 -16 7 -30 16 -30 21 0 18 -56 44 -104 49 -35 4
-50 9 -48 19 1 7 0 22 -3 32 -5 15 -10 17 -25 9 -25 -13 -51 -13 -30 0 13 8
12 10 -2 10 -10 0 -18 7 -18 16 0 8 5 12 11 9 6 -4 5 2 -3 14 -7 12 -16 21
-20 21 -11 0 -21 -86 -13 -112 9 -28 13 -65 19 -178 10 -207 8 -308 -7 -356
-17 -55 -34 -239 -28 -326 1 -32 -3 -80 -10 -108 -11 -44 -11 -56 5 -99 14
-40 15 -57 7 -88 -13 -45 -83 -131 -120 -145 -23 -8 -24 -10 -8 -19 28 -16 9
-30 -31 -23 -32 4 -42 1 -74 -29 -21 -18 -35 -37 -30 -41 4 -4 2 -6 -3 -5 -6
2 -29 -1 -52 -5 -38 -7 -43 -11 -43 -34 l0 -27 -13 24 c-24 48 -44 35 -38 -24
1 -15 -1 -17 -10 -8 -8 8 -18 9 -31 2 -12 -6 -25 -6 -38 1 -29 16 -40 5 -41
-43 -1 -23 -4 -33 -6 -23 -5 18 -6 18 -24 -5 l-19 -24 0 23 c0 20 -3 21 -20
12 -11 -6 -18 -15 -15 -21 4 -5 -1 -9 -9 -9 -9 0 -16 -6 -17 -12 0 -7 -6 2
-13 21 -18 51 -33 49 -50 -6 -10 -32 -15 -41 -17 -25 -1 12 -2 27 -3 33 0 7
-10 15 -21 19 -16 6 -25 0 -42 -29 l-22 -36 -1 34 c0 27 -3 32 -12 23 -7 -7
-22 -12 -35 -12 -13 0 -27 -9 -34 -22 -7 -13 -18 -27 -25 -31 -8 -4 -14 -16
-14 -26 0 -15 -8 -18 -37 -17 -34 1 -39 4 -43 31 -4 26 -9 30 -37 30 -23 1
-35 -6 -44 -23 -10 -17 -20 -22 -41 -20 -17 2 -32 -3 -38 -11 -7 -13 -11 -13
-26 0 -13 11 -18 11 -21 2 -3 -7 -13 -13 -24 -13 -11 0 -57 -21 -104 -46 -85
-46 -85 -46 -222 -55 -100 -7 -160 -6 -218 3 -44 7 -84 11 -89 10 -17 -5 -74
19 -92 39 -17 19 -16 21 24 61 23 22 39 44 37 48 -3 4 10 13 28 20 48 18 97
41 97 44 0 4 -63 0 -80 -6 -8 -3 -33 -11 -55 -17 -27 -7 -45 -20 -56 -39 -9
-16 -26 -32 -38 -35 -22 -5 -22 -5 -6 20 9 13 14 28 10 31 -3 4 -10 0 -15 -7
-10 -17 -111 -33 -165 -25 -22 3 -74 -2 -115 -10 -59 -12 -93 -14 -157 -6 -98
11 -165 28 -175 44 -15 22 -8 55 17 84 14 17 25 32 25 34 0 2 -36 2 -80 0 -63
-3 -83 0 -96 13 -11 11 -28 14 -55 11 -21 -3 -39 -2 -39 2 0 4 -22 17 -48 30
-26 13 -60 34 -76 47 l-30 24 19 41 c10 23 33 57 50 76 24 26 36 32 56 28 35
-9 160 -10 165 -2 3 4 -3 11 -11 15 -19 11 -15 44 7 67 9 9 47 24 85 32 37 9
76 21 85 25 34 17 248 10 338 -11 47 -11 96 -22 110 -24 14 -3 41 -11 60 -19
42 -17 104 -11 96 9 -3 8 3 18 12 23 27 14 142 25 142 14 0 -11 14 -14 90 -16
30 -1 60 -5 66 -9 6 -4 34 -1 62 7 29 7 52 9 52 4 0 -5 -4 -9 -10 -9 -5 0 -9
-5 -7 -12 5 -23 -46 -39 -106 -33 -40 4 -57 3 -52 -4 8 -14 4 -14 -36 2 -42
17 -119 22 -119 7 0 -5 6 -10 14 -10 16 0 38 -54 28 -66 -4 -4 -1 -4 6 1 8 4
12 16 9 26 -3 11 -1 19 3 19 9 0 25 -20 25 -32 0 -15 15 -20 15 -5 0 12 9 17
28 17 15 1 52 3 83 5 74 6 107 6 148 2 18 -2 49 2 69 8 28 10 42 10 64 0 21
-8 44 -9 81 -3 29 5 70 9 91 8 30 -1 46 5 68 27 16 15 41 28 56 29 64 3 71 4
67 17 -8 19 82 20 111 0 22 -14 24 -14 24 1 0 9 4 16 9 16 5 0 12 11 15 25 13
51 97 40 146 -19 14 -16 17 -17 29 -2 11 14 11 16 -2 16 -21 0 -32 19 -18 33
17 17 14 24 -19 37 -49 20 -52 82 -4 100 13 5 23 13 22 17 0 5 4 20 10 36 12
29 61 55 71 38 4 -6 12 -6 21 -1 20 12 6 23 -56 45 -77 27 -116 63 -116 108 0
23 -6 40 -16 46 -20 11 -9 41 18 48 22 6 26 18 10 28 -5 3 -10 11 -10 16 0 6
5 7 10 4 6 -3 20 -3 31 0 21 7 21 7 -2 23 -13 9 -33 16 -44 16 -11 0 -25 9
-32 20 -11 19 -12 19 -10 -9 1 -21 -3 -30 -13 -30 -8 0 -14 6 -12 14 2 8 -1
17 -5 20 -4 3 -13 15 -19 26 -6 11 -21 21 -33 23 -11 2 -21 7 -21 12 0 5 -3
16 -6 24 -4 12 -2 15 9 10 8 -3 18 0 22 6 6 9 9 9 15 0 5 -8 10 -9 14 -2 3 6
-4 13 -16 17 -77 20 -102 31 -119 54 -11 14 -37 37 -58 51 -21 14 -53 43 -72
65 -19 22 -37 41 -41 43 -14 6 -45 67 -51 98 -7 35 0 39 73 51 19 3 40 13 47
22 8 13 24 17 60 15 36 -1 53 3 71 19 19 18 22 19 22 3 0 -14 6 -16 38 -10 44
8 46 9 37 23 -3 6 -17 8 -31 5 -14 -4 -24 -2 -24 5 0 16 -91 14 -131 -3 -18
-8 -49 -11 -70 -9 -35 5 -37 4 -32 -17 l6 -21 -34 18 c-47 25 -79 61 -109 119
-14 27 -28 51 -32 52 -14 6 -9 22 5 16 7 -2 28 9 46 25 18 16 47 32 65 35 18
4 41 13 52 22 18 15 18 15 -2 5 -21 -10 -110 -25 -154 -25 -21 0 -24 4 -21 25
4 30 29 79 40 79 9 0 34 51 27 57 -2 3 -13 0 -24 -6 -25 -13 -59 -14 -66 -2
-7 11 13 71 24 71 5 0 21 12 37 28 15 15 44 40 63 56 21 18 30 31 23 33 -25 9
-12 33 35 68 26 19 54 35 62 35 9 0 11 3 4 10 -19 19 -107 -36 -178 -111 -68
-73 -136 -164 -136 -184 0 -6 -12 -22 -27 -37 -16 -14 -34 -33 -41 -42 -7 -9
-22 -16 -33 -16 -16 0 -18 5 -15 27 3 14 9 29 13 32 5 3 24 38 43 76 25 52 60
98 134 175 55 58 120 120 143 139 24 18 43 37 43 41 0 29 -41 4 -149 -91 -68
-60 -132 -109 -143 -109 -11 0 -17 -3 -15 -7 3 -5 -1 -13 -8 -20 -11 -10 -15
-10 -19 0 -3 7 -3 2 -1 -9 4 -17 -4 -29 -37 -54 -24 -18 -53 -44 -65 -58 -13
-16 -27 -23 -37 -19 -15 6 -14 10 1 42 9 19 29 40 44 47 34 15 46 48 18 48
-22 0 -23 8 -4 33 7 11 11 25 9 31 -3 7 5 20 18 28 31 21 95 78 87 78 -4 0
-28 -12 -54 -27 l-48 -26 6 35 5 36 -45 4 -45 3 -25 -50 c-14 -27 -30 -52 -35
-54 -5 -1 -20 -15 -34 -30 -20 -22 -24 -34 -20 -73 2 -32 0 -48 -8 -48 -6 0
-2 -7 8 -15 11 -8 15 -15 9 -15 -7 0 -14 -9 -18 -19 -4 -13 -18 -21 -43 -24
-20 -3 -51 -9 -69 -12 -37 -8 -103 11 -103 30 0 16 36 40 97 64 42 16 93 66
93 91 0 4 -15 11 -34 17 -27 8 -39 8 -55 -3 -13 -9 -30 -12 -47 -8 -21 5 -31
2 -45 -17 -17 -23 -17 -25 3 -46 13 -14 18 -28 13 -42 -10 -33 -51 -37 -109
-11 -63 28 -163 43 -237 35 -43 -4 -59 -2 -69 10 -10 12 -16 13 -26 4 -22 -18
-16 6 5 25 11 10 24 15 29 12 5 -3 23 -1 40 3 17 5 33 6 37 3 9 -9 215 -10
215 -1 0 4 8 6 18 5 14 -1 16 6 14 41 -3 34 0 44 15 50 10 4 23 14 29 22 10
13 15 13 27 2 13 -10 17 -9 26 8 6 11 11 38 11 60 0 23 4 41 9 41 19 0 19 29
0 51 -12 14 -16 26 -10 32 5 5 7 15 5 22 -3 7 4 19 15 27 20 14 75 88 65 88
-2 0 4 10 16 22 21 23 29 108 10 108 -6 0 -10 -6 -8 -13 2 -8 -28 -38 -67 -67
-96 -72 -149 -130 -165 -182 -17 -51 -69 -108 -99 -108 -12 0 -44 -12 -71 -26
-55 -29 -108 -38 -127 -22 -16 13 -17 50 -1 66 18 18 3 25 -65 28 -45 1 -73
-4 -104 -18 -47 -24 -124 -21 -150 5 -14 13 -13 17 11 32 14 10 26 25 26 35 0
10 22 42 48 72 45 49 48 56 44 96 -3 33 -1 41 10 37 9 -4 14 1 14 14 0 11 -5
17 -10 14 -5 -4 -7 1 -3 10 3 9 0 22 -7 29 -15 15 -2 67 21 81 7 4 13 21 13
37 0 16 6 35 14 42 10 11 35 123 27 123 -1 0 5 22 13 49 26 86 0 86 -40 1 -14
-30 -32 -56 -40 -59 -8 -3 -14 -13 -14 -22 0 -10 -4 -31 -9 -48 -39 -125 -52
-166 -64 -200 -14 -38 -34 -59 -49 -50 -4 3 -8 -6 -8 -20 0 -14 6 -26 13 -26
8 0 8 -3 -2 -9 -8 -5 -11 -16 -7 -27 4 -9 2 -20 -4 -24 -6 -4 -12 -24 -15 -46
-3 -32 -12 -46 -51 -79 -27 -22 -69 -60 -94 -84 -44 -42 -197 -123 -287 -151
-63 -19 -143 -53 -143 -60 0 -14 -46 -28 -63 -18 -11 6 -17 5 -17 -2 0 -16
-41 -11 -79 9 -31 16 -32 19 -16 34 18 19 35 22 35 8 0 -6 9 -9 20 -8 21 1 29
17 8 17 -21 0 3 15 40 25 29 9 38 16 42 39 3 20 16 35 38 48 54 30 81 61 90
103 6 30 13 41 30 43 23 3 30 26 12 37 -12 7 -5 46 20 100 10 22 21 60 24 85
4 25 11 54 16 65 4 11 14 92 20 180 6 88 16 165 21 171 12 15 30 124 23 136
-4 6 -14 -8 -24 -30 -10 -23 -31 -47 -47 -55 -24 -13 -25 -16 -10 -22 22 -9
23 -67 2 -85 -8 -7 -15 -17 -15 -23 0 -6 -7 -18 -15 -27 -12 -13 -13 -27 -6
-66 11 -60 5 -97 -20 -120 -10 -9 -19 -25 -19 -35 0 -21 -44 -54 -60 -44 -15
9 -22 -16 -18 -65 l3 -42 24 21 c31 27 38 27 17 -2 -9 -12 -21 -34 -27 -48 -5
-14 -40 -50 -77 -81 -86 -70 -158 -97 -133 -49 12 22 32 117 34 161 1 19 8 41
14 48 9 10 10 19 3 33 -6 11 -7 19 -1 19 5 0 7 9 4 20 -3 11 -9 20 -13 20 -5
0 -14 25 -21 55 -12 53 -29 83 -29 52 0 -8 -6 -20 -14 -26 -12 -10 -17 -8 -26
10 -7 12 -14 31 -15 43 -2 11 -7 32 -11 45 -7 22 -5 23 17 17 55 -17 79 -19
79 -4 0 8 -3 18 -7 22 -11 11 -11 50 -1 63 6 8 7 32 2 60 -12 76 -11 146 2
174 7 15 10 30 6 34 -4 4 2 6 12 4 12 -3 26 -23 39 -58 12 -30 23 -49 24 -44
2 6 -3 28 -11 48 -18 42 -21 69 -7 60 5 -3 3 7 -4 23 -13 25 -12 35 9 97 13
39 27 86 30 105 6 33 5 32 -19 -14 -14 -28 -25 -55 -25 -62 0 -6 -9 -22 -19
-35 l-19 -23 -21 70 c-12 39 -21 78 -21 87 0 9 -5 19 -11 23 -9 5 -10 -17 -7
-82 3 -50 1 -96 -5 -105 -14 -23 20 -74 40 -58 7 7 16 9 20 6 8 -9 -17 -38
-27 -32 -4 3 -13 -17 -20 -44 -15 -62 -40 -87 -69 -71 -14 7 -21 7 -21 0 0 -5
4 -10 9 -10 14 0 41 -29 41 -45 0 -7 -11 -16 -25 -19 -33 -8 -32 -26 1 -26 14
0 23 -4 20 -8 -3 -5 8 -6 25 -4 35 5 39 -13 4 -22 -13 -3 -29 -15 -35 -26 -14
-26 -30 -26 -27 1 1 12 -4 24 -10 26 -7 3 -13 -3 -13 -11 0 -13 -6 -15 -26
-10 -31 8 -32 15 11 -131 15 -49 31 -108 37 -130 5 -22 12 -47 15 -55 15 -42
10 -84 -23 -177 -15 -41 -17 -42 -70 -49 -40 -5 -54 -10 -54 -23 -1 -30 -36
-96 -74 -135 -20 -22 -38 -37 -41 -34 -13 12 -10 56 5 83 9 16 23 55 30 85 7
30 21 70 32 88 11 17 16 32 13 32 -4 0 -2 7 5 15 10 12 10 18 0 30 -7 8 -10
24 -7 35 4 14 -3 23 -26 35 -16 8 -36 15 -43 15 -7 0 -16 5 -20 12 -5 8 -2 9
10 5 12 -5 16 -3 13 5 -2 7 -10 13 -18 14 -16 1 -38 9 -97 35 -36 16 -42 23
-40 47 4 57 -2 92 -16 92 -9 0 -15 -21 -19 -72 -3 -39 -11 -74 -16 -78 -7 -4
-5 -14 5 -28 16 -23 39 -20 30 4 -6 17 -1 17 25 4 10 -6 19 -15 19 -21 0 -6
-6 -7 -12 -3 -7 4 -5 -2 5 -13 20 -23 22 -44 5 -61 -16 -16 -5 -15 37 2 46 19
54 3 13 -25 -18 -13 -44 -34 -58 -47 -17 -17 -32 -22 -50 -18 -22 4 -26 1 -26
-17 1 -14 -5 -22 -15 -21 -11 1 -15 -5 -12 -17 3 -11 11 -19 18 -19 8 0 21 -3
29 -6 12 -5 15 -2 10 10 -3 9 -10 13 -15 10 -5 -3 -9 -1 -9 5 0 15 35 31 68
31 42 0 44 -8 9 -42 -18 -17 -31 -34 -30 -39 4 -12 -34 -11 -42 1 -11 18 -25
10 -25 -14 0 -13 -8 -34 -18 -47 -10 -14 -19 -44 -21 -69 -3 -86 -27 -135 -93
-191 -45 -40 -62 -49 -68 -39 -4 7 -4 23 1 34 5 12 12 29 15 39 4 9 10 17 14
17 4 0 12 25 18 55 14 68 3 106 -27 98 -12 -3 -21 -1 -21 6 0 6 7 11 16 11 10
0 5 9 -15 26 -27 23 -34 24 -49 13 -14 -12 -14 -10 2 15 10 17 19 39 20 50 1
15 7 20 20 18 14 -3 17 1 13 12 -4 9 -2 16 3 16 6 0 10 18 10 40 0 29 -4 40
-15 40 -9 0 -26 6 -38 14 -16 10 -37 12 -74 7 -35 -5 -63 -3 -83 5 -18 8 -32
9 -35 3 -4 -5 6 -14 22 -19 43 -16 89 -40 78 -40 -5 0 -3 -4 5 -10 12 -8 12
-10 -3 -16 -28 -10 -20 -20 20 -22 20 -2 40 -5 44 -7 4 -3 10 1 12 7 3 7 6 3
6 -10 1 -13 -3 -21 -8 -18 -14 9 -41 -4 -41 -20 0 -7 -10 -20 -22 -28 -12 -9
-17 -16 -10 -16 7 0 11 -4 8 -9 -3 -4 7 -6 22 -3 24 5 26 4 13 -11 -16 -20
-46 -22 -62 -4 -13 13 -65 11 -74 -3 -3 -5 5 -12 17 -16 13 -3 28 -11 35 -16
16 -12 5 -38 -16 -38 -11 0 -7 -6 12 -18 32 -20 33 -26 7 -45 -20 -14 -45 -64
-41 -85 2 -9 -11 -12 -48 -9 -28 2 -51 0 -51 -4 0 -5 -6 -9 -14 -9 -9 0 -16
17 -20 50 -4 27 -12 52 -18 56 -7 5 -8 3 -3 -6 5 -8 4 -11 -3 -6 -18 11 -2 37
19 31 28 -9 23 14 -6 27 -18 8 -23 16 -19 33 3 13 -1 27 -10 34 -9 8 -16 20
-16 27 0 8 -2 14 -4 14 -2 0 -11 3 -20 6 -13 5 -16 -1 -16 -26 0 -31 -2 -32
-34 -28 -37 4 -37 3 1 -48 12 -17 21 -33 18 -36 -3 -3 -1 -17 4 -31 8 -19 7
-27 -5 -31 -8 -3 -14 -12 -14 -21 0 -17 -16 -20 -25 -5 -4 6 -15 6 -31 0 l-25
-10 26 34 c14 18 25 40 25 48 0 22 -37 29 -56 10 -11 -10 -18 -12 -22 -4 -5 6
-19 -1 -40 -19 -32 -29 -32 -29 -12 -46 20 -18 29 -49 9 -38 -5 4 -18 -2 -27
-13 -16 -18 -19 -19 -48 -3 -17 9 -29 22 -26 29 2 8 9 9 22 2 13 -7 21 -7 26
1 5 8 9 8 14 -1 5 -8 9 -7 13 5 4 10 0 18 -11 21 -36 11 -47 22 -56 54 -7 25
-7 35 2 38 7 2 12 13 12 23 0 16 -6 20 -27 17 -25 -3 -28 -7 -28 -43 0 -38 -2
-40 -45 -55 -25 -8 -48 -19 -51 -24 -4 -5 -12 -5 -19 -1 -9 5 -11 4 -6 -3 9
-14 56 -16 56 -3 0 5 14 3 30 -5 35 -18 34 -14 15 -50 -18 -35 -19 -63 -2 -85
10 -14 35 -21 107 -34 21 -3 38 -25 42 -52 4 -28 1 -33 -16 -33 -11 0 -31 11
-45 24 -29 27 -77 41 -86 26 -10 -16 -30 -12 -55 10 -28 25 -83 19 -117 -13
-13 -11 -23 -17 -23 -13 0 4 -18 -3 -41 -15 -31 -18 -44 -21 -57 -13 -19 12
-58 0 -65 -20 -2 -6 -3 -3 -1 7 2 12 -2 17 -11 13 -8 -3 -17 -1 -20 4 -3 5
-12 7 -19 4 -8 -3 -17 -1 -21 5 -4 8 -13 8 -28 -1 -12 -6 -23 -11 -24 -10 -11
7 -21 -1 -18 -15 1 -10 0 -12 -2 -5 -6 16 -33 16 -33 -1 0 -8 -18 -21 -40 -30
-39 -15 -50 -11 -29 10 7 7 7 28 -2 73 -11 56 -14 61 -26 45 -7 -11 -13 -26
-13 -36 0 -12 -7 -15 -27 -12 -21 3 -24 2 -14 -5 12 -8 9 -15 -15 -39 -19 -19
-28 -37 -26 -52 2 -12 -4 -31 -14 -42 -9 -10 -14 -19 -9 -19 4 0 -5 -10 -21
-22 -35 -28 -84 -36 -84 -14 0 9 4 16 10 16 5 0 17 11 26 25 16 24 16 28 -2
60 -20 38 -44 53 -44 29 0 -11 -6 -14 -22 -9 -35 11 -40 19 -44 70 -3 34 -11
54 -29 72 -28 29 -28 30 0 208 18 113 16 212 -3 224 -6 3 -13 18 -17 33 -4 15
-13 32 -21 39 -19 15 -18 30 1 23 12 -5 14 -2 8 12 -6 16 -4 17 9 6 26 -21 30
11 7 63 -20 44 -60 81 -55 50 1 -8 5 -18 9 -21 4 -4 7 -18 7 -31 0 -13 7 -26
15 -29 12 -5 11 -9 -5 -27 -15 -15 -19 -31 -16 -66 2 -25 6 -53 9 -61 16 -45
17 -70 3 -70 -7 0 -17 12 -22 28 -5 20 -8 23 -11 10 -6 -25 -20 -22 -49 10
-21 22 -23 28 -10 30 17 4 23 22 7 22 -20 0 -41 -13 -35 -21 3 -5 0 -9 -5 -9
-8 0 -9 -19 -5 -54 5 -40 2 -66 -10 -96 -9 -22 -16 -65 -16 -94 0 -72 -25
-201 -45 -228 -8 -13 -15 -30 -15 -40 0 -10 -7 -18 -15 -18 -8 0 -15 -5 -15
-11 0 -7 -12 -9 -36 -4 -34 6 -36 5 -31 -14 3 -14 -1 -25 -13 -31 -10 -5 -17
-21 -17 -36 0 -15 -7 -32 -14 -38 -8 -6 -22 -23 -32 -38 -13 -20 -25 -27 -45
-26 -15 1 -30 6 -34 12 -3 5 -6 -2 -7 -15 -1 -58 -3 -61 -23 -42 -10 9 -21 13
-26 9 -4 -4 2 -15 14 -25 19 -16 20 -18 6 -41 -30 -48 -45 -61 -53 -48 -5 8
-11 9 -21 1 -7 -6 -35 -10 -63 -8 -82 4 -79 2 -61 30 21 32 21 48 -1 37 -32
-15 -129 -9 -150 11 -11 9 -27 17 -36 17 -8 0 -28 10 -44 23 -42 34 -72 43
-133 37 l-55 -5 42 -40 c44 -43 80 -59 70 -31 -13 33 12 15 30 -21 10 -21 27
-40 37 -42 24 -4 62 -50 58 -69 -2 -7 3 -21 10 -30 10 -12 10 -14 1 -8 -9 5
-13 -1 -13 -21 l0 -28 -13 25 c-8 16 -20 24 -31 22 -11 -2 -23 2 -27 10 -7 10
-9 10 -9 -2 -1 -9 -6 -5 -15 10 -8 14 -14 19 -15 12 0 -9 -9 -7 -30 8 -19 13
-30 17 -30 9 0 -7 -3 -9 -6 -6 -4 3 -15 2 -25 -4 -13 -7 -19 -6 -19 1 0 6 -5
8 -12 4 -6 -4 -17 1 -25 11 -11 16 -13 16 -13 3 0 -33 38 -63 100 -78 33 -8
61 -19 60 -24 -1 -5 11 -17 27 -27 35 -24 38 -63 6 -80 -30 -16 -29 -27 3 -39
14 -6 22 -14 19 -20 -4 -6 -15 -4 -31 6 -22 15 -28 26 -25 47 0 4 -3 7 -8 7
-5 0 -8 7 -7 16 0 9 -5 19 -13 22 -10 3 -12 0 -7 -14 4 -11 10 -35 12 -54 5
-33 4 -32 -11 10 -19 52 -44 77 -57 57 -6 -8 -10 -9 -15 -1 -5 6 -16 13 -26
17 -27 10 -12 25 20 20 l28 -4 -32 28 c-21 19 -53 33 -93 41 -33 7 -60 17 -60
21 0 5 -9 7 -20 4 -11 -3 -20 -1 -20 5 0 5 -7 12 -15 16 -21 8 -19 -16 4 -40
27 -30 35 -60 16 -68 -8 -3 -15 -1 -15 4 0 6 -8 10 -18 10 -10 0 -22 3 -26 7
-8 8 -32 14 -63 17 -11 0 -19 4 -17 8 3 4 -4 16 -16 28 -11 11 -21 30 -21 43
-1 17 -2 18 -6 4 -4 -14 -8 -16 -19 -6 -17 14 -18 29 -1 29 7 0 18 14 25 32
11 31 12 31 32 13 22 -20 28 -8 8 15 -7 8 5 -1 27 -20 22 -19 43 -39 48 -45 4
-6 7 1 5 15 -1 14 -17 43 -35 66 l-32 41 21 40 c13 26 26 39 34 36 10 -4 14 4
14 27 0 29 2 31 16 19 15 -12 16 -11 9 10 -6 20 -4 23 9 18 9 -4 16 -1 16 6 1
7 10 1 21 -12 30 -36 33 -18 4 24 -27 40 -32 65 -14 65 6 0 8 7 5 16 -3 8 -2
12 4 9 6 -3 10 2 11 12 0 10 2 30 3 45 1 14 -2 24 -8 21 -5 -3 -7 0 -5 6 3 7
8 12 12 11 24 -3 48 47 35 73 -7 14 -3 23 16 38 14 11 26 29 26 39 0 10 10 31
23 47 13 15 27 36 30 46 8 23 -57 -27 -79 -61 -13 -20 -16 -21 -30 -8 -13 14
-13 21 0 58 8 24 12 47 9 51 -6 10 -32 -23 -33 -42 0 -8 -6 -11 -16 -7 -9 3
-20 6 -26 6 -6 0 -8 7 -5 15 4 8 2 17 -2 19 -5 3 -8 24 -7 46 1 22 -2 40 -6
40 -11 0 20 74 32 78 6 2 10 11 10 20 0 10 7 31 15 47 10 21 -4 9 -45 -35 -32
-36 -59 -73 -60 -83 0 -14 -5 -17 -20 -12 -14 4 -20 2 -20 -8 0 -20 -79 -107
-97 -107 -8 0 -11 5 -8 10 3 6 1 10 -4 10 -21 0 -11 35 25 87 20 29 40 53 45
53 5 0 8 8 7 18 -3 18 17 94 33 127 9 18 8 18 -8 -1 -26 -32 -57 -88 -54 -99
1 -5 -7 -1 -18 9 -20 18 -20 20 -3 33 9 8 11 12 5 8 -17 -8 -16 -2 4 62 9 29
21 53 26 53 5 0 6 12 3 28 -5 20 -4 23 4 12 8 -13 10 -12 11 5 1 39 8 59 22
66 9 5 12 18 9 34 -3 16 0 25 9 25 7 0 9 3 6 6 -4 4 2 15 13 24 18 16 18 19 5
30 -9 7 -17 11 -19 9 -11 -12 -76 -151 -76 -162 0 -8 -9 -22 -20 -32 -12 -10
-30 -39 -41 -64 -11 -25 -31 -57 -43 -71 -13 -14 -33 -43 -44 -65 -20 -40 -61
-86 -63 -69 0 5 -2 18 -4 29 -2 11 1 23 8 27 9 6 8 10 -3 17 -12 8 -12 13 4
30 11 12 14 21 8 21 -7 0 -7 9 1 29 6 17 15 28 19 25 4 -3 3 7 -4 22 -11 23
-10 28 10 44 12 10 22 21 22 25 0 3 6 13 14 21 13 12 16 12 26 -3 10 -16 11
-15 7 4 -3 13 -1 25 3 28 5 3 12 25 16 50 3 24 16 55 28 67 35 38 53 63 37 54
-8 -5 -17 -3 -23 5 -6 10 -7 6 -2 -11 3 -14 3 -21 -2 -17 -4 4 -9 20 -10 35
-5 82 -4 80 -19 47 -8 -16 -14 -52 -15 -78 0 -48 -22 -107 -40 -107 -6 0 -10
-6 -10 -12 -1 -20 -34 -55 -52 -55 -9 0 -16 5 -15 11 1 6 -4 10 -12 8 -14 -3
-14 4 4 113 5 28 -8 65 -19 55 -2 -3 -7 -41 -11 -85 -8 -86 -28 -150 -45 -140
-5 3 -10 -3 -10 -14 0 -11 -9 -25 -19 -31 -17 -9 -19 -7 -16 17 3 33 -4 55
-16 47 -5 -3 -9 2 -9 11 0 10 -5 14 -12 10 -7 -4 -5 0 6 9 15 12 17 20 8 45
-7 21 -7 31 0 33 7 3 5 10 -5 19 -16 17 -11 75 11 116 7 12 12 39 12 60 0 21
7 63 15 93 8 30 15 58 15 62 0 8 -90 61 -96 56 -2 -3 -7 -19 -10 -36 -5 -25
-3 -32 10 -32 9 0 16 -4 16 -9 0 -5 3 -17 6 -25 5 -13 2 -15 -12 -9 -16 6 -17
5 -6 -9 8 -10 10 -28 7 -45 -4 -15 -8 -38 -11 -50 -5 -28 -24 -29 -58 -2 -27
21 -46 18 -46 -6 0 -22 -38 -89 -63 -113 -19 -18 -31 -20 -66 -13 -2 1 3 8 10
17 18 22 19 236 1 242 -7 2 -12 10 -12 17 0 7 -7 15 -15 19 -19 7 -41 -36 -44
-89 -5 -79 -8 -90 -22 -93 -8 -1 -22 10 -31 26 -18 30 -16 47 19 142 6 15 11
150 6 150 -10 0 -41 -83 -75 -199 -58 -196 -131 -333 -161 -301 -9 10 -9 14 1
17 6 3 12 11 12 19 0 8 4 14 8 14 5 0 7 14 6 31 -1 17 4 46 11 63 8 18 15 54
17 79 2 27 9 49 16 52 9 3 12 16 8 36 -2 17 0 43 5 57 7 18 5 31 -6 49 -12 18
-13 28 -6 37 17 20 0 28 -21 9 -12 -11 -18 -30 -18 -62 0 -51 -31 -156 -80
-271 -18 -41 -36 -104 -42 -140 -21 -149 -21 -150 -4 -150 9 0 16 5 16 12 0 6
3 8 7 5 3 -4 -3 -17 -14 -30 -11 -12 -23 -37 -27 -55 -3 -19 -15 -45 -26 -59
-11 -14 -20 -32 -20 -40 0 -7 -16 -47 -35 -87 -19 -41 -35 -79 -35 -85 0 -6
-7 -8 -15 -5 -10 4 -15 0 -15 -10 0 -9 -11 -28 -25 -42 -14 -14 -25 -33 -25
-42 0 -9 -13 -31 -28 -49 -15 -18 -40 -51 -56 -73 -15 -23 -31 -39 -34 -36 -3
4 -14 -2 -25 -11 -16 -14 -19 -15 -15 -3 6 18 -18 44 -32 35 -5 -3 -10 3 -10
14 0 11 4 22 8 25 15 9 12 63 -4 77 -18 15 -47 22 -39 9 7 -11 -16 -63 -33
-73 -10 -7 -10 -12 -1 -23 18 -22 2 -16 -20 7 -15 16 -18 26 -11 40 13 23 13
38 0 19 -8 -12 -12 -12 -18 -2 -13 19 -2 62 14 62 8 0 14 6 14 14 0 8 8 17 18
22 22 10 92 12 86 3 -7 -11 17 -23 25 -12 9 14 66 24 77 13 11 -11 54 -2 54
11 0 5 -7 9 -16 9 -9 0 -28 9 -44 20 -15 11 -30 17 -34 13 -3 -3 -6 -1 -6 5 0
7 20 22 45 34 25 12 45 29 45 37 1 13 2 13 11 -1 11 -21 34 -23 45 -6 5 8 2 9
-12 4 -14 -5 -11 1 11 24 25 26 27 33 15 40 -19 11 -49 7 -59 -8 -4 -6 -28
-13 -53 -14 -25 -2 -44 -6 -43 -9 2 -3 -14 -10 -36 -16 -33 -9 -39 -8 -35 3 4
11 1 12 -14 4 -10 -5 -29 -10 -42 -10 -14 0 -34 -9 -46 -20 -20 -19 -26 -18
-23 3 1 8 -8 9 -67 12 -21 1 -43 5 -50 9 -7 4 -27 -4 -46 -19 -43 -33 -104
-42 -145 -20 -17 8 -31 20 -31 25 0 6 -6 10 -13 10 -8 0 -13 10 -13 22 1 14
-6 24 -18 26 -14 3 -17 0 -13 -12 3 -8 2 -18 -2 -21 -5 -3 -11 2 -15 10 -7 19
-40 19 -56 1 -6 -8 -18 -12 -26 -9 -8 3 -14 1 -15 -3 -6 -63 -8 -67 -29 -53
-11 8 -12 12 -2 16 14 6 17 53 2 53 -5 0 -10 -7 -10 -15 0 -18 -26 -20 -34 -2
-3 6 -4 -5 -1 -25 4 -23 2 -38 -5 -38 -5 0 -10 8 -10 18 0 10 -8 25 -19 34
-10 8 -21 22 -23 29 -7 21 -28 0 -29 -29 l-1 -27 -11 28 c-7 16 -19 28 -31 28
-19 2 -19 2 2 6 27 5 29 38 4 69 -27 34 -55 38 -68 10 -11 -23 -9 -24 15 -21
14 1 29 -3 33 -9 12 -18 9 -26 -7 -20 -9 4 -16 0 -16 -7 -4 -45 -7 -57 -13
-67 -3 -6 -1 -12 5 -14 7 -2 5 -9 -6 -18 -16 -13 -17 -9 -13 51 3 58 1 64 -17
67 -33 5 -65 35 -67 65 -1 16 -8 33 -15 39 -7 6 -13 16 -13 22 0 6 -9 17 -20
24 -16 9 -18 17 -10 36 6 16 5 29 -4 42 -22 33 -28 75 -13 93 8 9 17 26 20 39
4 18 1 22 -16 22 -12 1 -32 9 -45 19 -26 23 -30 77 -7 107 17 23 19 44 4 44
-6 0 -18 9 -27 21 -11 13 -23 18 -35 13 -16 -6 -16 -8 4 -40 18 -30 21 -49 20
-167 0 -72 3 -157 8 -187 5 -30 14 -85 20 -122 15 -95 98 -376 123 -418 23
-39 26 -97 5 -118 -8 -7 -41 -16 -74 -19 l-60 -5 -46 56 c-25 31 -53 79 -62
108 -26 80 -34 91 -50 78 -11 -9 -17 -6 -31 15 -15 24 -15 27 0 44 19 21 21
40 4 46 -7 3 -14 17 -15 32 0 15 -6 29 -12 31 -6 2 -11 14 -11 27 0 13 -4 27
-10 30 -18 11 -21 -42 -5 -110 8 -37 13 -76 10 -85 -6 -19 22 -80 37 -80 5 0
8 -7 4 -15 -3 -8 -2 -15 3 -15 11 0 33 -49 26 -60 -3 -5 2 -16 12 -25 9 -9 12
-20 7 -23 -5 -4 -10 -22 -11 -39 -3 -50 -19 -71 -60 -79 -69 -13 -91 15 -166
216 -68 179 -81 211 -94 221 -7 6 -13 22 -13 35 0 12 -4 26 -10 29 -5 3 -10 5
-10 3 -1 -2 -3 -32 -6 -68 -7 -83 -14 -90 -14 -16 0 49 -3 59 -19 63 -33 8
-31 29 5 48 40 21 44 35 10 35 -16 0 -27 7 -31 20 -8 24 1 40 21 40 8 0 14 4
14 10 0 10 -35 0 -68 -21 -26 -16 -17 -42 12 -34 17 5 18 4 6 -4 -8 -6 -12
-11 -7 -11 4 0 2 -10 -6 -22 -7 -13 -13 -32 -12 -42 0 -11 -12 -32 -27 -47
-16 -15 -28 -37 -28 -49 0 -12 -4 -19 -9 -16 -5 3 -7 15 -4 26 3 11 -1 27 -8
36 -11 14 -10 18 5 29 21 16 13 35 -13 35 -14 0 -17 -6 -15 -27 l4 -28 -11 28
c-12 30 -34 36 -43 11 -6 -15 -47 -17 -47 -2 0 14 -54 66 -76 73 -18 5 -22 3
-17 -9 4 -9 1 -16 -6 -16 -8 0 -10 9 -5 27 7 29 23 45 37 37 16 -10 7 19 -10
32 -16 12 -16 13 3 19 47 17 75 30 75 37 0 10 -4 10 -37 -4 -15 -6 -35 -10
-44 -9 -9 1 -19 -7 -21 -17 -4 -13 -15 -19 -37 -20 -17 0 -29 4 -26 9 4 5 0 9
-7 9 -9 1 -7 5 4 14 26 19 22 35 -9 31 l-26 -3 24 19 c20 15 25 16 27 4 4 -18
12 -18 33 -2 9 7 14 18 11 26 -3 10 1 12 15 9 12 -3 20 0 20 8 0 18 -7 18 -35
-2 -13 -9 -22 -11 -22 -4 0 6 -4 8 -10 5 -5 -3 -7 0 -4 8 3 8 -2 17 -10 20
-10 4 -21 -6 -33 -30 -19 -39 -43 -55 -43 -29 0 9 -5 16 -11 16 -6 0 -9 6 -6
14 3 8 -1 13 -11 12 -11 -1 -16 5 -14 17 4 24 -15 22 -23 -3 -3 -11 -11 -20
-16 -20 -16 0 -22 29 -9 45 11 14 7 19 -12 16 -5 0 -8 6 -8 16 0 9 -3 14 -6
10 -11 -10 -44 27 -44 51 0 14 -4 21 -11 16 -12 -7 -79 26 -79 39 0 4 7 10 15
13 8 4 12 10 9 15 -9 15 -53 10 -82 -8 l-27 -17 19 22 c11 12 25 22 32 22 7 0
15 14 19 31 8 34 -28 146 -53 166 -9 8 -12 18 -7 30 5 10 10 52 11 93 2 41 10
99 18 129 7 29 11 62 8 73 -3 11 0 23 6 27 6 4 13 16 15 26 2 11 8 29 14 40
10 18 20 53 53 185 5 19 12 60 15 90 3 30 12 82 20 115 52 221 69 287 85 340
11 33 24 80 31 105 6 25 15 54 19 65 4 11 14 36 21 55 15 43 41 79 109 149 40
41 51 59 47 77 -5 26 0 29 22 15 11 -7 21 1 42 32 14 23 43 59 63 80 20 20 36
43 36 51 0 8 6 16 14 19 28 11 105 73 111 89 3 9 25 32 48 50 23 18 80 68 126
111 47 43 103 91 125 105 23 15 44 31 47 36 4 5 30 17 59 27 29 10 61 26 71
35 11 10 19 14 19 10 0 -4 12 1 28 11 15 11 70 38 122 62 52 23 104 51 115 61
11 9 38 20 60 23 49 7 342 84 359 94 6 4 21 6 32 5 12 -2 48 6 81 17 46 16 86
20 182 20 67 0 126 3 131 6 5 3 11 1 15 -4 4 -7 15 -7 31 -1 35 14 300 14 414
0 122 -14 451 -14 555 1 44 6 112 10 150 8 177 -8 263 3 342 44 35 18 63 37
63 42 0 11 17 13 167 15 81 1 107 5 125 19 39 31 86 51 102 45 12 -4 15 -2 11
9 -11 26 107 62 232 71 32 2 64 17 125 58 82 55 105 69 195 118 l47 26 23 -24
c13 -13 29 -38 37 -55 l13 -32 5 33 c2 17 1 32 -3 32 -12 0 -4 27 12 47 9 10
19 26 22 36 5 13 13 16 27 12 11 -3 35 2 57 14 86 47 251 121 267 121 10 0 27
5 38 11 26 14 117 19 124 7 3 -4 20 2 37 14 18 13 34 22 37 22 3 -1 15 2 27 7
13 5 37 6 53 2 23 -4 30 -2 28 8 -2 8 7 15 22 17 14 2 30 9 35 15 6 7 28 12
51 12 22 1 58 9 80 20 21 10 47 18 57 17 9 0 17 4 17 11 0 8 3 8 10 1 13 -13
54 -4 183 37 71 22 94 26 115 18 15 -6 60 -8 102 -5 208 16 230 17 251 5 14
-7 19 -7 15 0 -5 7 16 10 64 10 39 -1 74 1 76 4 3 3 22 3 42 1 20 -2 82 -5
138 -8z m-1416 -186 c0 -5 -2 -10 -4 -10 -3 0 -8 5 -11 10 -3 6 -1 10 4 10 6
0 11 -4 11 -10z m-6750 -2551 c0 -6 -4 -7 -10 -4 -5 3 -10 11 -10 16 0 6 5 7
10 4 6 -3 10 -11 10 -16z m4480 -992 c0 -8 -10 -22 -22 -33 -13 -10 -17 -12
-10 -4 6 8 12 22 12 32 0 10 5 18 10 18 6 0 10 -6 10 -13z m247 -22 c0 -8 -4
-15 -9 -15 -4 0 -8 7 -8 15 0 8 4 15 8 15 5 0 9 -7 9 -15z m-3657 0 c0 -2 -14
-12 -31 -21 -17 -8 -28 -11 -24 -4 4 6 17 15 29 20 27 11 26 11 26 5z m3047
-70 c-7 -14 -15 -25 -19 -25 -11 0 -10 8 2 31 16 28 30 23 17 -6z m-3157 11
c0 -2 -21 -17 -47 -32 -27 -15 -58 -34 -70 -42 -13 -8 -23 -12 -23 -9 0 5 130
87 138 87 1 0 2 -2 2 -4z m68 -84 c-40 -39 -75 -68 -77 -66 -3 3 28 36 68 75
40 39 75 69 77 66 3 -3 -27 -37 -68 -75z m458 -37 c-3 -10 1 -15 13 -15 10 0
21 -3 24 -6 9 -10 -13 -45 -24 -39 -5 4 -7 10 -4 15 3 4 -2 13 -10 20 -18 15
-20 40 -4 40 6 0 9 -7 5 -15z m-31 -15 c3 -5 -1 -10 -9 -10 -9 0 -16 5 -16 10
0 6 4 10 9 10 6 0 13 -4 16 -10z m-575 -115 c-7 -9 -15 -13 -18 -10 -3 2 1 11
8 20 7 9 15 13 18 10 3 -2 -1 -11 -8 -20z m-30 -22 c-1 -5 -12 -21 -26 -38
-26 -30 -23 -21 6 23 16 23 20 27 20 15z m1870 -49 c0 -9 -5 -14 -12 -12 -18
6 -21 28 -4 28 9 0 16 -7 16 -16z m-43 -16 c-3 -8 -6 -5 -6 6 -1 11 2 17 5 13
3 -3 4 -12 1 -19z m393 -13 c0 -8 -9 -15 -20 -15 -11 0 -20 7 -20 15 0 8 9 15
20 15 11 0 20 -7 20 -15z m-1280 -15 c0 -5 -5 -10 -11 -10 -5 0 -7 5 -4 10 3
6 8 10 11 10 2 0 4 -4 4 -10z m-1024 -28 c-17 -16 -18 -16 -5 5 7 12 15 20 18
17 3 -2 -3 -12 -13 -22z m989 18 c3 -5 1 -10 -4 -10 -6 0 -11 5 -11 10 0 6 2
10 4 10 3 0 8 -4 11 -10z m925 -25 c0 -19 -4 -35 -10 -35 -11 0 -13 30 -4 54
10 25 14 19 14 -19z m121 -32 c-9 -16 -10 -16 -11 4 0 12 3 30 7 40 7 16 8 16
11 -4 2 -12 -1 -30 -7 -40z m36 25 c-3 -7 -5 -2 -5 12 0 14 2 19 5 13 2 -7 2
-19 0 -25z m-870 0 c-3 -8 -6 -5 -6 6 -1 11 2 17 5 13 3 -3 4 -12 1 -19z
m1086 -3 c-7 -21 -13 -19 -13 6 0 11 4 18 10 14 5 -3 7 -12 3 -20z m5597 -16
c0 -6 -4 -7 -10 -4 -5 3 -10 11 -10 16 0 6 5 7 10 4 6 -3 10 -11 10 -16z
m-5813 -46 c-3 -10 -5 -2 -5 17 0 19 2 27 5 18 2 -10 2 -26 0 -35z m-2138 -28
c-12 -19 -23 -35 -25 -35 -6 0 14 40 29 58 18 23 16 12 -4 -23z m2001 1 c0 -3
-4 -8 -10 -11 -5 -3 -10 -1 -10 4 0 6 5 11 10 11 6 0 10 -2 10 -4z m587 -28
c-3 -7 -5 -2 -5 12 0 14 2 19 5 13 2 -7 2 -19 0 -25z m-13 -52 c-3 -15 -8 -25
-11 -23 -2 3 -1 17 3 31 3 15 8 25 11 23 2 -3 1 -17 -3 -31z m2066 -5 c0 -6
-4 -13 -10 -16 -5 -3 -10 1 -10 9 0 9 5 16 10 16 6 0 10 -4 10 -9z m-2440 -39
c0 -10 -7 -27 -15 -38 -13 -17 -13 -15 -3 19 12 41 18 47 18 19z m388 -82 l0
-45 -9 40 c-4 22 -8 54 -7 70 0 29 0 29 8 5 4 -14 8 -45 8 -70z m236 55 c3 -8
1 -15 -4 -15 -6 0 -10 7 -10 15 0 8 2 15 4 15 2 0 6 -7 10 -15z m-1679 -45
c-4 -17 -9 -29 -12 -26 -3 2 -2 19 2 36 4 17 9 29 12 26 3 -2 2 -19 -2 -36z
m5963 18 c-2 -6 -10 -14 -16 -16 -7 -2 -10 2 -6 12 7 18 28 22 22 4z m-4855
-39 c22 -24 34 -24 41 -1 2 9 4 6 3 -8 -2 -14 -8 -24 -15 -22 -6 1 -12 -2 -12
-8 0 -15 -65 -28 -102 -21 -18 4 -32 13 -30 19 1 7 -1 11 -5 10 -5 -2 -19 5
-33 15 -24 17 -24 17 -2 17 12 0 22 -5 22 -10 0 -7 7 -7 21 0 11 7 18 14 15
18 -4 3 4 11 16 18 25 13 50 5 81 -27z m578 26 c0 -6 -10 -12 -23 -13 -19 -4
-20 -2 -9 12 15 17 33 18 32 1z m4233 4 c4 -4 -5 -14 -19 -23 -19 -12 -30 -14
-39 -7 -7 6 -22 9 -34 6 -29 -5 -28 7 1 20 24 11 82 14 91 4z m-2474 -213 c0
-2 -7 -6 -15 -10 -8 -3 -15 -1 -15 4 0 6 7 10 15 10 8 0 15 -2 15 -4z m-2000
-125 c0 -5 -7 -12 -16 -15 -14 -5 -15 -4 -4 9 14 17 20 19 20 6z m0 -212 c0
-18 -2 -19 -15 -9 -8 7 -15 16 -15 21 0 5 7 9 15 9 9 0 15 -9 15 -21z m2660 7
c0 -11 -19 -15 -25 -6 -3 5 1 10 9 10 9 0 16 -2 16 -4z m-2592 -36 c-7 -10
-14 -17 -17 -15 -4 4 18 35 25 35 2 0 -1 -9 -8 -20z m2685 -17 c-7 -2 -19 -2
-25 0 -7 3 -2 5 12 5 14 0 19 -2 13 -5z m-987 -41 c-4 -11 6 -42 22 -73 16
-30 33 -65 37 -79 4 -14 18 -37 32 -52 14 -14 22 -31 19 -37 -10 -15 -43 -14
-49 2 -3 7 -6 5 -6 -5 -1 -10 6 -18 14 -18 8 0 15 -7 15 -15 0 -8 -9 -15 -20
-15 -11 0 -20 6 -20 13 0 7 -9 13 -20 13 -11 0 -20 -5 -20 -10 0 -6 -5 -5 -11
1 -6 6 -17 9 -23 7 -7 -3 -32 17 -57 45 -74 83 -71 73 -53 143 9 35 21 68 26
73 8 7 9 6 4 -2 -5 -8 -1 -13 9 -13 9 0 14 -4 11 -9 -7 -11 22 -36 31 -27 3 3
6 19 6 36 0 24 3 27 14 19 7 -6 13 -18 13 -25 0 -8 4 -14 8 -14 5 0 7 14 4 30
-3 19 0 30 8 30 6 0 9 -8 6 -18z m282 -4 c-5 -32 -28 -35 -28 -4 0 17 5 26 16
26 10 0 14 -7 12 -22z m-192 -43 c1 0 4 -12 8 -26 4 -19 1 -29 -10 -33 -8 -3
-12 -2 -9 4 3 5 -4 19 -15 30 -11 11 -18 25 -15 30 4 6 -1 10 -9 10 -10 0 -13
6 -9 16 5 13 10 12 32 -8 14 -13 26 -23 27 -23z m277 5 c-3 -11 -7 -20 -9 -20
-2 0 -4 9 -4 20 0 11 4 20 9 20 5 0 7 -9 4 -20z m376 -6 c2 -2 -12 -4 -32 -4
-20 0 -38 4 -42 9 -5 9 64 4 74 -5z m-602 -46 c-7 -21 12 -48 34 -48 18 0 21
-5 17 -28 -3 -23 1 -32 23 -45 15 -8 30 -12 32 -9 2 4 3 2 1 -4 -1 -6 3 -17 9
-23 8 -8 6 -11 -9 -11 -11 0 -25 5 -31 11 -8 8 -13 8 -17 0 -4 -6 0 -11 9 -11
10 0 13 -5 9 -12 -4 -6 -3 -8 4 -4 6 3 14 1 18 -5 4 -7 3 -9 -3 -6 -6 4 -16 1
-22 -7 -9 -10 -8 -15 3 -19 8 -3 17 -3 20 1 10 9 86 10 86 0 0 -4 6 -5 14 -2
8 3 19 -3 25 -15 9 -17 9 -20 -3 -15 -8 3 -23 -4 -33 -15 -9 -12 -28 -21 -41
-21 -20 0 -22 2 -12 15 10 12 7 15 -14 21 -14 3 -32 4 -40 1 -13 -5 -26 13
-26 36 1 4 -6 15 -15 23 -11 12 -12 20 -4 35 7 15 7 24 -2 35 -15 19 -29 18
-29 -2 0 -14 -2 -15 -17 -3 -15 13 -15 14 0 17 20 4 20 7 6 33 -5 11 -14 17
-19 14 -4 -3 -6 5 -2 17 3 14 2 19 -6 14 -7 -4 -12 -2 -12 4 0 7 9 14 20 17
11 3 20 9 20 14 0 5 3 9 6 9 3 0 4 -6 1 -12z m81 -47 c3 -8 -1 -12 -9 -9 -7 2
-15 10 -17 17 -3 8 1 12 9 9 7 -2 15 -10 17 -17z m272 -12 c0 -14 -27 -10 -33
5 -4 10 0 12 14 9 10 -3 19 -9 19 -14z m-20 -49 c0 -5 -2 -10 -4 -10 -3 0 -8
5 -11 10 -3 6 -1 10 4 10 6 0 11 -4 11 -10z m-650 -59 c4 6 13 8 19 5 6 -4 11
-2 11 3 0 6 7 11 16 11 8 0 13 -4 9 -9 -3 -5 5 -11 17 -13 13 -2 22 -9 21 -16
-4 -15 9 -16 23 -2 7 7 22 0 47 -24 20 -19 37 -38 37 -42 0 -4 -3 -4 -6 -1 -4
3 -16 0 -28 -8 -11 -8 -28 -15 -38 -15 -11 0 -21 -12 -27 -32 -5 -18 -10 -28
-10 -21 -1 9 -8 8 -28 -3 -16 -7 -33 -14 -39 -14 -18 0 -34 -46 -21 -59 14
-14 37 -14 37 -1 0 6 28 8 73 6 80 -5 137 9 137 34 0 10 9 16 28 17 15 0 48 9
74 18 43 15 49 16 63 2 8 -9 15 -21 15 -27 0 -22 -79 -120 -96 -120 -6 0 -77
-52 -84 -62 -3 -3 -23 -8 -45 -10 -26 -2 -46 -11 -57 -25 -20 -24 -23 -43 -8
-43 6 0 10 -9 10 -20 0 -11 -4 -20 -10 -20 -5 0 -10 -9 -10 -20 0 -11 -4 -20
-10 -20 -6 0 -9 -5 -8 -12 2 -6 -13 -21 -33 -32 -32 -17 -38 -18 -51 -5 -8 8
-14 28 -14 44 1 28 -1 30 -39 31 -22 1 -47 -5 -56 -13 -11 -9 -35 -13 -68 -12
-37 2 -56 -2 -70 -15 -13 -12 -27 -15 -41 -11 -16 5 -30 -1 -52 -22 -24 -21
-29 -23 -24 -9 6 17 5 17 -11 5 -9 -8 -14 -9 -10 -2 4 6 3 14 -3 18 -5 3 -10
1 -10 -4 0 -6 -7 -11 -15 -11 -8 0 -15 -7 -15 -16 0 -13 -3 -14 -15 -4 -8 6
-19 9 -26 5 -6 -4 -15 -1 -20 6 -7 11 -13 9 -28 -10 -12 -15 -21 -20 -25 -13
-5 9 -12 8 -27 -1 -16 -10 -21 -9 -29 2 -7 12 -12 11 -29 -10 -11 -13 -20 -27
-21 -31 0 -14 -71 -46 -179 -82 -97 -32 -121 -36 -170 -31 -31 4 -83 8 -116
11 -33 2 -62 9 -64 15 -2 6 -15 15 -30 20 -25 10 -25 11 -6 25 11 8 25 12 33
9 7 -2 10 0 7 5 -8 12 3 50 14 50 5 0 25 16 45 35 21 19 42 35 47 35 5 0 9 5
9 10 0 6 -7 10 -16 10 -8 0 -12 5 -9 10 3 6 17 10 30 10 13 0 27 5 31 11 5 8
10 6 16 -5 10 -17 40 -14 66 7 23 18 -5 37 -41 26 -18 -5 -47 -11 -64 -14 -18
-2 -41 -8 -51 -14 -10 -5 -36 -7 -59 -4 -22 3 -49 0 -61 -6 -15 -8 -23 -8 -27
0 -9 13 -102 4 -121 -12 -8 -6 -14 -7 -14 -2 0 12 -129 7 -160 -6 l-25 -11 27
3 c15 2 25 0 22 -4 -3 -5 -39 -9 -80 -9 -52 0 -73 3 -68 11 3 6 15 9 25 6 12
-3 19 0 19 10 0 10 -6 13 -16 9 -9 -3 -24 -6 -35 -6 -10 0 -18 -6 -16 -12 1
-7 -5 -11 -13 -9 -8 2 -33 7 -55 11 -22 4 -31 8 -20 9 20 2 20 2 1 16 -11 8
-28 15 -37 15 -16 0 -16 2 -3 30 16 32 29 38 37 18 4 -9 6 -8 6 3 1 20 45 61
56 52 4 -5 5 0 2 10 -6 15 3 22 25 18 4 0 5 5 2 13 -5 14 -54 10 -54 -4 0 -4
-6 -10 -14 -13 -10 -4 -12 0 -8 15 4 16 1 19 -14 15 -10 -4 -32 -9 -49 -13
-28 -7 -29 -6 -15 10 12 16 11 20 -10 37 -14 10 -29 19 -35 19 -5 0 -23 10
-38 23 -25 19 -27 26 -18 49 8 20 15 25 31 21 13 -3 26 1 33 11 10 14 21 14
77 5 35 -5 75 -7 88 -4 15 4 21 2 17 -5 -3 -5 3 -10 14 -10 15 0 19 -4 14 -17
-5 -13 -2 -15 16 -10 12 3 40 -1 61 -8 22 -8 67 -16 101 -19 34 -3 65 -8 68
-11 3 -4 4 -22 2 -42 -3 -35 -2 -35 28 -31 21 3 31 0 31 -8 0 -7 8 -12 18 -12
9 0 26 -3 36 -7 15 -7 17 -5 11 5 -6 10 -4 12 11 6 52 -21 107 -25 184 -13 14
2 35 -3 48 -11 31 -20 39 -9 12 18 -29 29 -20 35 25 16 20 -9 41 -13 46 -10 5
3 9 1 9 -5 0 -5 24 -8 58 -6 31 3 67 4 79 5 22 0 22 3 17 56 l-7 57 28 -7 c15
-4 47 -16 72 -28 33 -15 42 -25 38 -37 -5 -13 -4 -14 6 -3 18 17 30 15 23 -3
-8 -21 10 -19 30 4 15 17 15 20 1 34 -15 16 -20 37 -8 37 4 0 23 -17 42 -38
43 -45 111 -98 111 -86 0 5 -5 29 -11 53 -11 51 -5 59 47 55 38 -3 43 5 15 23
-24 15 -33 60 -14 67 8 3 23 2 32 -4 10 -5 21 -7 24 -3 4 3 14 0 23 -7 13 -11
17 -11 24 0 6 9 12 5 24 -16 14 -27 15 -28 16 -6 0 20 3 21 21 12 15 -8 24 -8
34 0 11 9 24 6 59 -14 26 -14 48 -21 51 -16 4 6 -1 10 -9 10 -15 0 -43 24 -79
66 -17 20 -17 23 -2 38 9 9 12 16 6 16 -20 0 -11 18 12 24 21 7 21 7 2 15 -11
5 -24 6 -28 4 -5 -3 -4 4 2 16 7 11 14 21 17 21 3 0 2 -5 -2 -12 -4 -7 -3 -8
4 -4 8 5 9 13 3 25 -14 26 2 46 26 33 15 -8 23 -8 32 1 10 9 12 9 9 -2 -2 -8
5 -17 14 -19 12 -2 19 5 24 22 l6 25 25 -30 c18 -21 28 -27 33 -18z m20 33 c0
-8 -5 -12 -10 -9 -6 4 -8 11 -5 16 9 14 15 11 15 -7z m319 -74 c0 -12 -2 -11
-10 3 -5 9 -19 17 -29 17 -23 0 -26 10 -8 28 10 10 16 8 30 -10 10 -13 18 -30
17 -38z m351 6 c0 -11 -19 -15 -25 -6 -3 5 1 10 9 10 9 0 16 -2 16 -4z m-912
-23 c-1 -5 4 -21 10 -36 15 -35 5 -55 -14 -30 -14 19 -18 55 -7 66 8 9 13 9
11 0z m-1493 -93 c3 -6 0 -10 -7 -10 -15 0 -38 19 -38 32 0 10 36 -8 45 -22z
m1461 6 c20 -21 17 -28 -6 -14 -11 7 -20 16 -20 20 0 12 10 9 26 -6z m284 -86
c0 -5 -4 -10 -10 -10 -5 0 -10 5 -10 10 0 6 5 10 10 10 6 0 10 -4 10 -10z
m-1350 -80 c0 -5 -4 -10 -10 -10 -5 0 -10 5 -10 10 0 6 5 10 10 10 6 0 10 -4
10 -10z m8307 -186 c-3 -3 -12 -4 -19 -1 -8 3 -5 6 6 6 11 1 17 -2 13 -5z
m-7022 -114 c3 -5 1 -10 -4 -10 -6 0 -11 5 -11 10 0 6 2 10 4 10 3 0 8 -4 11
-10z m5659 -186 c3 -8 2 -12 -4 -9 -6 3 -10 10 -10 16 0 14 7 11 14 -7z
m-6767 0 c-3 -3 -12 -4 -19 -1 -8 3 -5 6 6 6 11 1 17 -2 13 -5z m6128 -4 c3
-5 2 -10 -4 -10 -5 0 -13 5 -16 10 -3 6 -2 10 4 10 5 0 13 -4 16 -10z m4413
-72 c8 -10 4 -13 -14 -14 -24 -2 -31 6 -17 19 10 10 19 8 31 -5z m-9297 -151
c-1 -12 -15 -9 -19 4 -3 6 1 10 8 8 6 -3 11 -8 11 -12z m2599 -91 c0 -3 -4 -8
-10 -11 -5 -3 -10 -1 -10 4 0 6 5 11 10 11 6 0 10 -2 10 -4z m4436 -213 c-7
-7 -26 7 -26 19 0 6 6 6 15 -2 9 -7 13 -15 11 -17z"/>
<path d="M8316 10917 c3 -10 9 -15 12 -12 3 3 0 11 -7 18 -10 9 -11 8 -5 -6z"/>
<path d="M7922 10678 c11 -24 25 -45 29 -46 5 -2 7 -7 5 -11 -3 -4 -1 -13 3
-20 6 -9 9 -3 9 15 0 16 -3 31 -7 34 -3 3 -14 18 -23 35 -26 46 -39 41 -16 -7z"/>
<path d="M8272 10378 c39 -117 77 -218 84 -224 9 -7 12 -19 8 -29 -6 -15 -4
-16 14 -6 25 13 27 22 10 40 -11 11 -10 12 0 7 9 -6 8 3 -3 31 -10 21 -21 49
-25 63 -19 61 -55 136 -84 177 -13 18 -26 50 -30 72 -3 23 -11 41 -16 41 -6 0
-10 6 -10 14 0 8 -4 17 -9 21 -5 3 22 -90 61 -207z"/>
<path d="M8506 10567 c3 -10 9 -15 12 -12 3 3 0 11 -7 18 -10 9 -11 8 -5 -6z"/>
<path d="M8100 10289 c0 -4 7 -22 15 -40 10 -25 14 -29 15 -13 0 17 -29 70
-30 53z"/>
<path d="M8142 10165 c0 -11 4 -31 8 -45 6 -20 8 -21 8 -5 0 11 -4 31 -8 45
-6 20 -8 21 -8 5z"/>
<path d="M8670 10133 c0 -24 3 -33 9 -25 7 12 4 62 -5 62 -2 0 -4 -17 -4 -37z"/>
<path d="M8392 10079 c-11 -16 -8 -38 12 -122 14 -56 28 -133 32 -172 6 -61
35 -145 49 -145 9 0 3 63 -11 115 -7 28 -14 91 -16 142 -1 69 -5 90 -14 82
-16 -13 -24 10 -24 66 0 50 -10 63 -28 34z"/>
<path d="M7955 10020 c2 -41 9 -109 15 -150 5 -41 13 -123 16 -181 3 -58 11
-123 18 -144 10 -27 11 -48 3 -77 -7 -27 -6 -65 2 -121 6 -45 11 -101 11 -124
0 -36 3 -43 20 -43 17 0 19 5 14 60 -4 41 -2 68 8 88 18 35 12 201 -7 232 -4
6 -8 24 -10 38 -2 29 -36 207 -80 427 l-14 70 4 -75z"/>
<path d="M8680 10078 c0 -9 5 -20 10 -23 13 -8 13 5 0 25 -8 13 -10 13 -10 -2z"/>
<path d="M9081 10031 c-1 -36 2 -52 9 -45 6 6 6 26 1 54 l-9 45 -1 -54z"/>
<path d="M8679 10002 c6 -12 16 -24 22 -28 8 -4 8 -1 0 14 -6 12 -16 24 -22
28 -8 4 -8 1 0 -14z"/>
<path d="M7576 9970 c3 -14 10 -32 15 -40 7 -12 8 -11 9 6 0 11 -7 29 -16 40
-14 18 -15 18 -8 -6z"/>
<path d="M8184 9942 c3 -24 7 -46 10 -49 12 -13 12 4 0 47 l-14 45 4 -43z"/>
<path d="M9090 9814 c0 -8 5 -12 10 -9 6 3 10 10 10 16 0 5 -4 9 -10 9 -5 0
-10 -7 -10 -16z"/>
<path d="M5233 9780 c3 -14 0 -28 -9 -37 -21 -22 -13 -34 29 -49 42 -15 87 -4
87 20 0 8 3 21 6 29 7 20 -29 43 -80 53 -37 6 -39 6 -33 -16z"/>
<path d="M7782 9685 c0 -16 2 -22 5 -12 2 9 2 23 0 30 -3 6 -5 -1 -5 -18z"/>
<path d="M8295 9630 c3 -41 12 -74 24 -90 24 -33 61 -110 61 -127 0 -7 4 -13
9 -13 12 0 -1 49 -22 81 -8 13 -22 52 -31 85 -8 34 -22 77 -31 95 l-15 34 5
-65z"/>
<path d="M11696 9565 c-9 -26 -7 -32 5 -12 6 10 9 21 6 23 -2 3 -7 -2 -11 -11z"/>
<path d="M8555 9459 c-7 -20 9 -72 24 -77 11 -4 12 4 7 34 -9 44 -23 65 -31
43z"/>
<path d="M11662 9433 c-5 -16 -21 -41 -36 -56 -22 -24 -25 -36 -24 -85 1 -50
-4 -69 -42 -142 -23 -47 -47 -88 -52 -91 -5 -3 -14 -26 -19 -50 -17 -77 -60
-203 -76 -221 -9 -10 -12 -25 -8 -36 3 -11 2 -23 -3 -26 -5 -3 -9 -19 -10 -37
-1 -40 -8 -46 -34 -30 -20 12 -20 12 -13 -36 8 -55 9 -57 28 -50 14 5 42 90
38 115 -2 14 -4 14 36 3 32 -9 32 -9 29 20 -2 16 -6 32 -9 36 -4 3 1 19 9 36
9 17 20 54 25 84 5 29 13 77 18 106 5 29 18 73 30 97 12 24 21 48 21 53 0 5 7
23 15 40 24 54 55 141 55 158 0 8 11 43 24 77 14 34 21 62 16 62 -4 0 -12 -12
-18 -27z"/>
<path d="M10986 9368 c-3 -13 -8 -57 -11 -98 -7 -82 -14 -139 -20 -156 -2 -6
0 -16 4 -22 4 -7 12 31 19 83 15 117 15 119 26 126 4 4 3 15 -2 26 -6 11 -8
29 -5 41 3 12 3 22 -1 22 -3 0 -8 -10 -10 -22z"/>
<path d="M10741 9334 c0 -11 3 -14 6 -6 3 7 2 16 -1 19 -3 4 -6 -2 -5 -13z"/>
<path d="M8582 9270 c0 -19 2 -27 5 -17 2 9 2 25 0 35 -3 9 -5 1 -5 -18z"/>
<path d="M10750 9246 c0 -14 5 -28 10 -31 6 -4 10 7 10 24 0 17 -4 31 -10 31
-5 0 -10 -11 -10 -24z"/>
<path d="M7710 9249 c0 -5 5 -7 10 -4 6 3 10 8 10 11 0 2 -4 4 -10 4 -5 0 -10
-5 -10 -11z"/>
<path d="M7679 9193 c-18 -47 -16 -68 7 -71 25 -4 40 24 24 43 -8 9 -8 15 0
20 15 10 12 35 -5 35 -9 0 -20 -12 -26 -27z"/>
<path d="M8421 9131 c0 -54 3 -91 9 -91 6 0 10 -8 10 -17 1 -15 2 -16 9 -3 11
20 -1 176 -16 191 -9 9 -12 -11 -12 -80z"/>
<path d="M6477 9174 c-2 -11 -5 -38 -5 -61 -1 -24 -10 -77 -22 -118 -12 -42
-18 -84 -15 -95 4 -11 0 -44 -8 -73 -9 -28 -18 -71 -22 -94 -6 -39 -5 -44 18
-52 14 -6 28 -15 32 -20 3 -6 15 -15 25 -21 17 -9 20 -4 30 48 7 31 17 75 24
97 10 32 10 71 0 200 -6 88 -13 161 -13 163 -1 1 -8 2 -17 2 -8 0 -13 4 -10 8
2 4 1 14 -4 21 -6 11 -9 9 -13 -5z"/>
<path d="M10746 9182 c-3 -5 1 -19 8 -33 7 -13 11 -30 9 -36 -2 -6 1 -14 6
-18 12 -7 14 17 5 64 -6 30 -18 39 -28 23z"/>
<path d="M8020 9153 c0 -19 17 -43 31 -43 11 0 -2 38 -17 51 -11 9 -14 8 -14
-8z"/>
<path d="M7452 9110 c0 -14 2 -19 5 -12 2 6 2 18 0 25 -3 6 -5 1 -5 -13z"/>
<path d="M7652 9088 c-14 -29 -46 -125 -67 -203 -9 -33 -21 -68 -26 -77 -5
-10 -9 -24 -9 -32 0 -9 -10 -25 -22 -37 -13 -12 -17 -19 -10 -15 8 5 12 0 12
-15 0 -18 -2 -20 -16 -9 -12 11 -15 11 -12 -1 2 -8 8 -17 13 -21 6 -5 5 -8 -2
-8 -11 0 -29 -48 -49 -134 l-7 -29 33 29 c42 38 92 125 136 234 37 94 39 105
24 95 -5 -3 -18 -1 -27 4 -17 10 -17 10 0 11 12 0 17 8 17 26 0 14 4 23 10 19
13 -8 33 43 23 58 -10 16 -4 47 13 71 8 11 14 28 14 38 0 26 -34 22 -48 -4z"/>
<path d="M10546 9068 c-9 -30 7 -68 29 -68 8 0 15 -6 15 -13 0 -7 9 -18 20
-25 29 -18 25 -7 -14 36 -19 20 -36 51 -38 67 l-4 30 -8 -27z"/>
<path d="M8201 8902 c0 -95 4 -172 8 -172 5 0 11 -10 14 -22 4 -12 9 -19 13
-16 8 9 -4 60 -14 54 -4 -2 -5 18 -3 45 3 44 5 48 16 32 13 -17 14 -17 20 0 4
9 4 25 0 35 -12 26 -15 40 -26 122 -19 130 -29 102 -28 -78z"/>
<path d="M10780 9050 c0 -19 3 -21 12 -12 9 9 9 15 0 24 -9 9 -12 7 -12 -12z"/>
<path d="M7434 9049 c-3 -6 -1 -16 5 -22 8 -8 11 -5 11 11 0 24 -5 28 -16 11z"/>
<path d="M10948 9025 c-3 -14 -1 -25 3 -25 5 0 9 11 9 25 0 14 -2 25 -4 25 -2
0 -6 -11 -8 -25z"/>
<path d="M11772 9030 c-7 -11 -18 -20 -26 -20 -8 0 -16 -16 -20 -38 -8 -52
-34 -140 -53 -180 -19 -37 -20 -35 31 -50 44 -12 63 -7 46 13 -8 9 -8 15 0 20
5 3 10 1 10 -4 0 -6 7 -11 16 -11 9 0 14 7 12 18 -2 11 -12 17 -31 16 -15 0
-27 4 -27 8 0 4 -5 8 -11 8 -5 0 -7 -4 -4 -10 3 -5 1 -10 -4 -10 -16 0 -13 20
4 26 8 4 12 11 8 18 -4 6 1 5 11 -3 27 -22 37 2 31 76 -4 44 -1 74 10 99 17
41 16 53 -3 24z"/>
<path d="M10390 9040 c-13 -67 8 -220 34 -249 9 -10 16 -23 16 -29 0 -6 4 -13
9 -16 11 -7 6 59 -8 104 -6 19 -16 64 -22 99 -8 54 -26 108 -29 91z"/>
<path d="M7401 8941 c-12 -38 -21 -80 -19 -93 3 -16 12 3 31 61 15 47 23 89
19 93 -5 5 -18 -23 -31 -61z"/>
<path d="M7811 8888 c-6 -62 -20 -149 -31 -192 -15 -58 -17 -82 -9 -87 8 -4 6
-10 -6 -16 -10 -6 -19 -27 -22 -54 -3 -24 -12 -52 -19 -63 -7 -11 -10 -32 -7
-54 4 -24 2 -38 -8 -46 -16 -13 -20 -97 -5 -108 6 -4 -1 -15 -15 -27 -24 -20
-24 -20 -4 -35 20 -15 20 -15 -2 -9 -18 4 -23 1 -23 -14 0 -16 5 -19 24 -16
23 5 24 3 16 -28 -5 -19 -11 -43 -15 -54 -3 -11 0 -27 7 -36 16 -21 58 -35 58
-20 0 6 5 11 10 11 6 0 10 -7 8 -16 -2 -10 2 -19 8 -21 16 -5 12 30 -4 40 -6
4 -17 5 -22 2 -6 -3 -17 0 -25 9 -13 13 -14 31 -6 89 0 4 10 3 22 -3 11 -6 25
-9 32 -6 7 2 4 5 -7 5 -14 1 -16 4 -7 15 13 15 4 46 -18 62 -13 10 -13 14 -2
28 8 10 21 14 32 11 13 -5 19 -1 19 10 0 9 4 14 9 11 4 -3 7 16 5 41 -2 29 1
50 8 54 6 4 11 26 11 48 0 24 4 41 11 41 7 0 12 26 14 68 2 37 5 75 8 85 4 12
0 17 -12 17 -17 0 -17 1 0 13 10 8 20 27 22 43 10 70 12 164 4 169 -5 3 -7 12
-4 19 3 8 1 17 -5 21 -7 4 -9 22 -5 47 6 37 -3 57 -27 58 -3 0 -11 -51 -18
-112z"/>
<path d="M11250 8940 c8 -5 11 -10 6 -10 -4 0 -2 -10 6 -22 19 -30 43 -133 34
-147 -4 -7 -1 -9 8 -5 8 3 16 -2 19 -13 3 -12 5 -10 6 8 0 15 -6 43 -15 64 -8
21 -14 55 -13 77 4 42 -9 58 -46 58 -17 0 -17 -2 -5 -10z"/>
<path d="M8001 8833 c-1 -92 2 -113 13 -113 24 0 28 17 13 52 -8 18 -12 55
-11 81 2 26 -1 58 -6 70 -6 15 -9 -14 -9 -90z"/>
<path d="M8321 8925 c1 -19 18 -51 18 -35 0 8 -4 22 -9 30 -5 8 -9 11 -9 5z"/>
<path d="M3538 8906 c-14 -11 -18 -28 -18 -84 0 -39 5 -74 10 -77 6 -4 7 -12
3 -18 -4 -7 0 -6 10 2 9 7 17 9 17 4 0 -5 18 -19 39 -31 38 -22 55 -18 48 10
-2 7 -2 10 0 6 5 -7 62 10 81 25 9 7 18 4 32 -8 21 -19 70 -27 70 -13 0 4 5 8
11 8 6 0 9 -6 6 -14 -4 -9 2 -13 19 -13 13 0 24 5 24 12 0 17 20 24 52 18 33
-6 54 16 63 66 9 56 0 78 -37 85 -29 6 -88 -11 -88 -25 0 -3 -12 -4 -26 -1
-21 4 -25 2 -19 -8 6 -10 4 -12 -9 -7 -10 4 -20 7 -22 7 -3 0 -2 5 1 10 3 6
-5 10 -19 10 -13 0 -26 -5 -28 -10 -5 -16 -110 -14 -151 4 -21 8 -41 24 -45
35 -6 17 -10 18 -24 7z"/>
<path d="M3715 8870 c-3 -5 -1 -10 4 -10 6 0 11 5 11 10 0 6 -2 10 -4 10 -3 0
-8 -4 -11 -10z"/>
<path d="M9991 8814 c0 -11 3 -14 6 -6 3 7 2 16 -1 19 -3 4 -6 -2 -5 -13z"/>
<path d="M8256 8787 c3 -10 9 -15 12 -12 3 3 0 11 -7 18 -10 9 -11 8 -5 -6z"/>
<path d="M10002 8735 c0 -16 2 -22 5 -12 2 9 2 23 0 30 -3 6 -5 -1 -5 -18z"/>
<path d="M11776 8735 c-9 -23 -8 -25 9 -25 17 0 19 9 6 28 -7 11 -10 10 -15
-3z"/>
<path d="M10595 8690 c8 -37 21 -58 31 -47 7 6 3 15 -22 57 -15 25 -15 25 -9
-10z"/>
<path d="M11331 8704 c0 -11 3 -14 6 -6 3 7 2 16 -1 19 -3 4 -6 -2 -5 -13z"/>
<path d="M8015 8659 c9 -52 12 -56 27 -41 8 8 8 12 1 12 -6 0 -10 14 -9 32 0
18 -5 33 -13 36 -10 3 -12 -5 -6 -39z"/>
<path d="M10010 8678 c0 -15 5 -30 10 -33 13 -8 13 25 0 45 -8 12 -10 9 -10
-12z"/>
<path d="M11245 8660 c4 -6 11 -8 16 -5 14 9 11 15 -7 15 -8 0 -12 -5 -9 -10z"/>
<path d="M8180 8594 c0 -15 20 -127 26 -143 2 -8 7 -12 9 -9 6 5 -21 147 -29
155 -3 4 -6 2 -6 -3z"/>
<path d="M8289 8591 c-6 -18 8 -152 20 -201 29 -109 33 -122 37 -117 2 2 -5
58 -16 123 -12 65 -23 137 -26 159 -6 43 -10 52 -15 36z"/>
<path d="M10607 8584 c-11 -11 -8 -42 4 -49 16 -10 19 -2 11 29 -4 15 -11 24
-15 20z"/>
<path d="M11695 8550 c-3 -5 -1 -10 4 -10 6 0 11 5 11 10 0 6 -2 10 -4 10 -3
0 -8 -4 -11 -10z"/>
<path d="M11347 8513 c-8 -46 -2 -54 14 -19 l13 27 22 -28 c26 -32 34 -12 9
23 -8 12 -11 24 -8 28 3 3 -5 6 -19 6 -22 0 -26 -6 -31 -37z"/>
<path d="M10046 8475 c4 -38 10 -74 15 -79 13 -15 10 31 -6 94 l-14 55 5 -70z"/>
<path d="M6927 8443 c-34 -80 -35 -87 -19 -99 15 -11 19 -9 28 14 7 15 17 52
24 82 6 30 14 63 17 73 2 9 1 17 -4 17 -5 0 -25 -39 -46 -87z"/>
<path d="M10943 8509 c1 -13 -2 -34 -6 -45 -6 -17 -3 -23 13 -27 20 -5 21 -3
15 36 -8 47 -24 72 -22 36z"/>
<path d="M12190 8495 c-7 -8 -19 -15 -27 -15 -12 0 -13 -3 -3 -15 6 -8 9 -19
5 -25 -13 -21 11 -9 25 13 32 48 32 80 0 42z"/>
<path d="M3420 8471 c0 -20 9 -36 25 -49 27 -22 32 -38 13 -45 -7 -3 -1 -6 13
-6 34 -1 57 -26 35 -38 -15 -8 -66 -4 -174 12 -36 6 -41 5 -36 -9 5 -14 9 -14
22 -4 13 11 14 10 10 -2 -3 -8 -14 -15 -26 -15 -12 0 -30 -8 -39 -18 -16 -16
-14 -17 36 -17 46 0 52 2 41 15 -16 19 -3 40 16 24 8 -6 14 -17 14 -25 0 -7
16 -16 35 -20 54 -10 51 -21 -10 -34 -50 -10 -76 -30 -40 -30 14 0 19 -12 16
-32 0 -5 4 -8 11 -8 9 0 9 -3 0 -12 -19 -19 -15 -26 23 -44 21 -9 35 -24 35
-34 0 -10 9 -20 20 -23 13 -3 20 -14 20 -31 0 -27 15 -27 55 2 20 14 20 14 -2
9 -27 -6 -39 8 -24 27 6 7 8 16 4 19 -9 9 19 8 33 -1 6 -4 14 -16 18 -27 14
-46 74 -53 93 -12 12 25 6 86 -10 105 -8 10 -8 16 0 20 7 5 6 23 -4 57 -7 28
-18 82 -22 120 -5 39 -11 77 -14 85 -3 8 -8 27 -11 43 -4 15 -11 27 -17 27 -6
0 -8 -4 -5 -8 2 -4 1 -14 -4 -22 -13 -21 -72 -17 -107 8 -40 28 -43 28 -43 -7z
m36 -252 l19 -21 -35 7 c-43 9 -48 14 -30 25 21 14 25 13 46 -11z"/>
<path d="M11341 8431 c-8 -5 -20 -7 -28 -4 -18 7 -27 -21 -14 -46 9 -16 7 -23
-10 -35 -22 -15 -21 -15 17 -31 31 -12 39 -21 41 -42 0 -15 -7 -34 -16 -43
-26 -22 -41 -55 -41 -90 0 -31 -31 -103 -50 -115 -15 -9 -32 -45 -22 -45 5 0
22 12 37 28 15 15 32 27 37 27 5 0 20 24 33 54 12 30 29 59 37 65 8 6 13 17
11 24 -3 6 1 12 7 12 10 0 10 3 0 15 -10 12 -8 16 14 25 14 5 26 15 27 22 4
61 1 180 -5 185 -4 4 -15 2 -25 -4 -11 -7 -22 -8 -27 -3 -5 5 -15 5 -23 1z"/>
<path d="M12105 8390 c-16 -16 -26 -32 -24 -35 3 -3 19 11 36 30 38 43 28 47
-12 5z"/>
<path d="M13120 8405 c-8 -9 -8 -15 -2 -15 12 0 26 19 19 26 -2 2 -10 -2 -17
-11z"/>
<path d="M12644 8388 l-19 -23 23 19 c21 18 27 26 19 26 -2 0 -12 -10 -23 -22z"/>
<path d="M4936 8391 c-7 -11 22 -23 36 -15 6 4 5 10 -3 15 -18 11 -26 11 -33
0z"/>
<path d="M10980 8370 c6 -11 12 -20 14 -20 2 0 2 9 -1 20 -3 11 -9 20 -15 20
-5 0 -4 -9 2 -20z"/>
<path d="M4390 8372 c0 -7 -7 -12 -15 -12 -19 0 -20 -16 -1 -23 15 -6 33 29
22 40 -3 4 -6 1 -6 -5z"/>
<path d="M13064 8345 c-30 -40 -29 -47 4 -34 19 7 25 19 21 45 0 4 5 11 13 15
9 6 9 9 1 9 -7 0 -24 -16 -39 -35z"/>
<path d="M7406 8308 c-8 -24 -20 -69 -25 -100 -6 -31 -22 -79 -36 -105 -61
-113 -75 -142 -104 -207 -35 -77 -35 -76 -21 -76 5 0 25 21 44 47 26 36 32 51
24 61 -8 9 -7 11 5 6 11 -4 27 13 57 63 22 37 49 82 60 98 10 17 20 43 22 58
3 16 11 33 19 38 10 7 7 8 -12 4 l-25 -6 7 53 c4 29 10 63 14 74 13 42 -13 34
-29 -8z"/>
<path d="M13900 8340 c-40 -6 -36 -7 30 -8 50 0 68 2 55 8 -22 10 -23 10 -85
0z"/>
<path d="M13828 8333 c7 -3 16 -2 19 1 4 3 -2 6 -13 5 -11 0 -14 -3 -6 -6z"/>
<path d="M12580 8307 c-24 -20 -120 -135 -120 -144 0 -4 13 -8 30 -8 32 0 72
33 76 62 4 29 18 71 31 96 6 10 0 8 -17 -6z"/>
<path d="M12967 8242 c-31 -26 -79 -64 -107 -85 -43 -32 -48 -40 -39 -56 11
-16 22 -8 111 82 54 55 97 101 95 103 -1 2 -28 -18 -60 -44z"/>
<path d="M7643 8253 c-23 -9 -14 -20 12 -15 14 2 22 8 19 13 -6 10 -12 10 -31
2z"/>
<path d="M9970 8241 c0 -6 4 -13 10 -16 6 -3 7 1 4 9 -7 18 -14 21 -14 7z"/>
<path d="M10000 8198 c0 -24 11 -48 21 -48 13 0 10 23 -6 44 -12 16 -15 17
-15 4z"/>
<path d="M8276 8191 c-3 -5 1 -14 8 -20 12 -10 13 -8 9 8 -6 23 -9 25 -17 12z"/>
<path d="M3200 8145 c0 -8 5 -15 10 -15 6 0 10 7 10 15 0 8 -4 15 -10 15 -5 0
-10 -7 -10 -15z"/>
<path d="M3888 8133 c-3 -14 14 -112 22 -133 1 -3 2 -9 1 -13 -3 -20 31 -67
50 -67 16 0 18 4 11 16 -5 9 -7 25 -5 35 3 11 1 19 -4 19 -5 0 -8 24 -7 53 2
58 -20 107 -47 107 -10 0 -19 -8 -21 -17z"/>
<path d="M14468 8123 c7 -3 16 -2 19 1 4 3 -2 6 -13 5 -11 0 -14 -3 -6 -6z"/>
<path d="M14365 8110 c-19 -8 -19 -9 3 -9 12 -1 22 4 22 9 0 6 -1 10 -2 9 -2
0 -12 -4 -23 -9z"/>
<path d="M14408 8113 c7 -3 16 -2 19 1 4 3 -2 6 -13 5 -11 0 -14 -3 -6 -6z"/>
<path d="M12782 8094 c-7 -8 -8 -14 -3 -14 10 0 25 19 20 25 -2 1 -10 -3 -17
-11z"/>
<path d="M7616 8091 c-3 -5 1 -11 9 -15 9 -3 15 0 15 9 0 16 -16 20 -24 6z"/>
<path d="M3427 8043 c-14 -13 -6 -24 15 -21 27 4 36 28 11 28 -11 0 -23 -3
-26 -7z"/>
<path d="M12696 8031 c-3 -5 0 -11 8 -14 15 -6 26 1 26 15 0 11 -27 10 -34 -1z"/>
<path d="M7676 8016 c3 -9 11 -16 16 -16 13 0 5 23 -10 28 -7 2 -10 -2 -6 -12z"/>
<path d="M4560 8007 c-17 -13 -15 -47 2 -47 5 0 7 7 4 16 -4 10 1 22 11 30 10
7 14 13 8 13 -5 0 -17 -5 -25 -12z"/>
<path d="M4660 7995 c0 -8 7 -15 15 -15 9 0 12 6 9 15 -4 8 -10 15 -15 15 -5
0 -9 -7 -9 -15z"/>
<path d="M4500 7991 c0 -5 5 -13 10 -16 6 -3 10 -2 10 4 0 5 -4 13 -10 16 -5
3 -10 2 -10 -4z"/>
<path d="M3466 7967 c3 -10 9 -15 12 -12 3 3 0 11 -7 18 -10 9 -11 8 -5 -6z"/>
<path d="M13192 7942 c-55 -61 -104 -144 -93 -155 14 -14 61 19 61 43 0 11 7
20 15 20 9 0 18 7 21 15 4 8 10 12 15 9 5 -3 9 5 9 16 0 15 -5 20 -15 17 -19
-8 -29 9 -13 20 20 13 52 53 42 53 -5 0 -24 -17 -42 -38z"/>
<path d="M3552 7943 c-2 -26 -1 -26 13 -7 18 24 19 34 2 34 -7 0 -14 -12 -15
-27z"/>
<path d="M5562 7942 c-17 -17 -21 -27 -13 -35 6 -6 11 -7 11 -3 0 5 6 3 14 -3
10 -8 16 -8 25 3 8 9 8 16 2 20 -6 4 -8 13 -5 20 9 24 -10 23 -34 -2z"/>
<path d="M3430 7951 c0 -17 18 -21 24 -6 3 9 0 15 -9 15 -8 0 -15 -4 -15 -9z"/>
<path d="M3505 7940 c-3 -5 -2 -10 4 -10 5 0 13 5 16 10 3 6 2 10 -4 10 -5 0
-13 -4 -16 -10z"/>
<path d="M5625 7939 c-4 -6 -5 -12 -2 -15 2 -3 7 2 10 11 7 17 1 20 -8 4z"/>
<path d="M4546 7924 c-13 -33 -4 -42 23 -25 12 8 12 12 -1 25 -15 14 -17 14
-22 0z"/>
<path d="M7822 7878 c2 -13 10 -28 18 -35 22 -17 7 -25 -26 -13 -26 9 -27 9
-10 -4 10 -8 16 -19 13 -23 -3 -5 -2 -25 2 -45 6 -23 5 -40 -2 -47 -8 -8 -7
-11 2 -11 7 0 10 -4 6 -9 -3 -5 -1 -12 4 -15 5 -4 12 3 16 14 4 11 11 17 16
14 7 -4 8 10 4 40 -4 27 -3 51 3 59 5 6 13 26 16 43 7 30 5 31 -18 27 -19 -4
-26 -1 -26 11 0 9 -5 16 -11 16 -5 0 -9 -10 -7 -22z"/>
<path d="M7505 7820 c3 -5 11 -10 16 -10 6 0 7 5 4 10 -3 6 -11 10 -16 10 -6
0 -7 -4 -4 -10z"/>
<path d="M10055 7820 c3 -5 8 -10 11 -10 2 0 4 5 4 10 0 6 -5 10 -11 10 -5 0
-7 -4 -4 -10z"/>
<path d="M7685 7790 c-3 -5 -1 -10 4 -10 6 0 11 5 11 10 0 6 -2 10 -4 10 -3 0
-8 -4 -11 -10z"/>
<path d="M7045 7779 c-4 -6 -5 -12 -2 -15 2 -3 7 2 10 11 7 17 1 20 -8 4z"/>
<path d="M7422 7740 c7 -10 14 -18 15 -16 6 6 -9 36 -18 36 -5 0 -4 -9 3 -20z"/>
<path d="M7600 7740 c13 -11 27 -20 33 -20 5 0 7 -14 5 -31 -6 -36 12 -49 78
-54 24 -2 48 -6 53 -9 5 -3 14 1 21 9 10 12 10 15 0 15 -7 0 -10 7 -7 15 4 8
2 17 -3 20 -4 3 -10 1 -12 -5 -3 -10 -16 -4 -79 37 -19 13 -38 21 -44 20 -5
-2 -16 2 -23 10 -7 7 -21 13 -29 13 -12 0 -11 -5 7 -20z"/>
<path d="M9098 7753 c7 -3 16 -2 19 1 4 3 -2 6 -13 5 -11 0 -14 -3 -6 -6z"/>
<path d="M9560 7740 c0 -5 5 -10 11 -10 5 0 7 5 4 10 -3 6 -8 10 -11 10 -2 0
-4 -4 -4 -10z"/>
<path d="M7781 7724 c0 -11 3 -14 6 -6 3 7 2 16 -1 19 -3 4 -6 -2 -5 -13z"/>
<path d="M13385 7700 c-16 -7 -17 -9 -3 -9 9 -1 20 4 23 9 7 11 7 11 -20 0z"/>
<path d="M7595 7671 c-6 -11 9 -23 19 -14 9 9 7 23 -3 23 -6 0 -12 -4 -16 -9z"/>
<path d="M7559 7599 c14 -25 18 -26 32 -13 8 8 19 11 22 7 4 -3 7 2 7 11 0 12
-5 16 -15 12 -8 -3 -15 -2 -15 3 0 5 -11 9 -24 9 -23 0 -23 -1 -7 -29z"/>
<path d="M4031 7541 c-8 -5 -9 -11 -3 -15 5 -3 12 1 16 9 6 17 6 18 -13 6z"/>
<path d="M7480 7530 c0 -5 10 -10 23 -10 18 0 19 2 7 10 -19 13 -30 13 -30 0z"/>
<path d="M7537 7523 c-3 -5 1 -14 9 -20 14 -14 30 0 19 17 -7 12 -22 13 -28 3z"/>
<path d="M15390 7480 c-13 -8 -12 -10 3 -10 9 0 17 5 17 10 0 12 -1 12 -20 0z"/>
<path d="M9020 7420 c0 -5 5 -10 11 -10 5 0 7 5 4 10 -3 6 -8 10 -11 10 -2 0
-4 -4 -4 -10z"/>
<path d="M8800 7410 c0 -5 5 -10 10 -10 6 0 10 5 10 10 0 6 -4 10 -10 10 -5 0
-10 -4 -10 -10z"/>
<path d="M7048 7248 c5 -5 16 -8 23 -6 8 3 3 7 -10 11 -17 4 -21 3 -13 -5z"/>
<path d="M7720 7221 c0 -5 5 -13 10 -16 6 -3 10 -2 10 4 0 5 -4 13 -10 16 -5
3 -10 2 -10 -4z"/>
<path d="M7070 7185 c0 -14 37 -45 54 -45 16 0 13 5 -14 25 -35 26 -40 28 -40
20z"/>
<path d="M13600 7158 c-20 -9 -22 -12 -8 -15 10 -3 28 3 40 11 26 19 7 21 -32
4z"/>
<path d="M13472 7112 c-33 -18 -35 -35 -4 -25 33 10 62 26 62 35 0 13 -22 9
-58 -10z"/>
<path d="M7656 7097 c3 -10 9 -15 12 -12 3 3 0 11 -7 18 -10 9 -11 8 -5 -6z"/>
<path d="M7197 7079 c7 -7 15 -10 18 -7 3 3 -2 9 -12 12 -14 6 -15 5 -6 -5z"/>
<path d="M7240 7070 c-9 -6 -9 -12 1 -29 15 -23 49 -29 49 -8 0 19 -36 46 -50
37z"/>
<path d="M14350 7034 c0 -37 2 -43 13 -32 19 20 21 78 2 78 -11 0 -15 -12 -15
-46z"/>
<path d="M7615 7060 c4 -6 11 -8 16 -5 14 9 11 15 -7 15 -8 0 -12 -5 -9 -10z"/>
<path d="M7276 6995 c4 -9 11 -14 16 -13 15 5 11 23 -6 26 -11 2 -14 -2 -10
-13z"/>
<path d="M13550 6990 c0 -5 4 -10 9 -10 6 0 13 5 16 10 3 6 -1 10 -9 10 -9 0
-16 -4 -16 -10z"/>
<path d="M7364 6968 c9 -5 13 -14 10 -20 -4 -7 -2 -8 5 -4 6 4 9 11 6 16 -3 4
1 10 7 13 7 2 0 4 -16 4 -23 0 -26 -1 -12 -9z"/>
<path d="M7075 6950 c3 -5 11 -10 16 -10 6 0 7 5 4 10 -3 6 -11 10 -16 10 -6
0 -7 -4 -4 -10z"/>
<path d="M13520 6808 c-36 -11 -72 -23 -80 -26 -8 -3 -28 -4 -45 -2 -25 2 -27
0 -17 -13 10 -12 8 -16 -15 -22 -16 -3 -29 -5 -29 -3 -5 10 -42 -36 -38 -47 3
-7 -2 -15 -10 -18 -9 -4 -16 -2 -16 3 0 6 -6 10 -12 10 -7 -1 3 -14 22 -31 25
-21 36 -26 38 -16 3 17 49 40 62 32 5 -3 12 6 16 20 3 13 11 22 16 19 5 -3 22
5 36 19 34 32 117 77 143 77 10 0 19 5 19 10 0 14 -16 12 -90 -12z"/>
<path d="M13406 6525 c-10 -8 -24 -16 -30 -19 -6 -3 0 -13 14 -24 13 -11 28
-18 33 -15 5 3 4 9 -3 13 -9 6 -6 10 9 15 13 4 21 13 19 23 -4 21 -19 24 -42
7z"/>
<path d="M13895 6051 c6 -11 65 -41 80 -41 16 0 1 20 -22 28 -16 5 -37 13 -47
18 -14 5 -17 4 -11 -5z"/>
<path d="M14008 6013 c7 -3 16 -2 19 1 4 3 -2 6 -13 5 -11 0 -14 -3 -6 -6z"/>
<path d="M12350 5740 c8 -5 20 -10 25 -10 6 0 3 5 -5 10 -8 5 -19 10 -25 10
-5 0 -3 -5 5 -10z"/>
<path d="M13301 5292 c-1 -16 -6 -22 -18 -20 -10 2 -19 -4 -20 -12 -5 -20 36
-24 43 -5 3 7 4 24 1 37 l-4 23 -2 -23z"/>
<path d="M6431 6506 c-9 -10 -8 -15 2 -19 22 -8 37 6 22 20 -10 10 -16 9 -24
-1z"/>
<path d="M6490 6400 c0 -5 5 -10 11 -10 5 0 7 5 4 10 -3 6 -8 10 -11 10 -2 0
-4 -4 -4 -10z"/>
<path d="M5815 6330 c3 -5 11 -10 16 -10 6 0 7 5 4 10 -3 6 -11 10 -16 10 -6
0 -7 -4 -4 -10z"/>
<path d="M5155 6270 c3 -5 8 -10 11 -10 2 0 4 5 4 10 0 6 -5 10 -11 10 -5 0
-7 -4 -4 -10z"/>
<path d="M5050 6260 c0 -5 7 -10 15 -10 8 0 15 5 15 10 0 6 -7 10 -15 10 -8 0
-15 -4 -15 -10z"/>
<path d="M5856 6248 c-23 -13 -20 -25 7 -24 20 1 36 13 37 27 0 9 -26 7 -44
-3z"/>
<path d="M5910 6221 c0 -14 9 -18 42 -19 47 -2 47 0 -4 21 -36 15 -38 15 -38
-2z"/>
<path d="M5820 6170 l-35 -7 43 -2 c27 0 41 3 37 9 -3 6 -7 9 -8 9 -1 -1 -18
-5 -37 -9z"/>
<path d="M5758 6163 c7 -3 16 -2 19 1 4 3 -2 6 -13 5 -11 0 -14 -3 -6 -6z"/>
<path d="M5975 6160 c-3 -5 -1 -10 4 -10 6 0 11 5 11 10 0 6 -2 10 -4 10 -3 0
-8 -4 -11 -10z"/>
</g>
</svg>
